<?xml version="1.0" encoding="UTF-8" standalone="no"?>
<!-- Created with Inkscape (http://www.inkscape.org/) -->

<svg
   version="1.1"
   id="svg1"
   width="250"
   height="425"
   viewBox="0 0 250 425"
   sodipodi:docname="camel.svg"
   inkscape:version="1.4.3 (fcd0343856, 2026-01-01)"
   xmlns:inkscape="http://www.inkscape.org/namespaces/inkscape"
   xmlns:sodipodi="http://sodipodi.sourceforge.net/DTD/sodipodi-0.dtd"
   xmlns="http://www.w3.org/2000/svg"
   xmlns:svg="http://www.w3.org/2000/svg">
  <defs
     id="defs1" />
  <sodipodi:namedview
     id="namedview1"
     pagecolor="#000000"
     bordercolor="#000000"
     borderopacity="0.25"
     inkscape:showpageshadow="2"
     inkscape:pageopacity="0.0"
     inkscape:pagecheckerboard="0"
     inkscape:deskcolor="#d1d1d1"
     inkscape:zoom="1.8068182"
     inkscape:cx="26.842767"
     inkscape:cy="136.98113"
     inkscape:window-width="3072"
     inkscape:window-height="1659"
     inkscape:window-x="0"
     inkscape:window-y="0"
     inkscape:window-maximized="1"
     inkscape:current-layer="g1"
     inkscape:antialias-rendering="true">
    <inkscape:page
       x="0"
       y="0"
       inkscape:label="1"
       id="page1"
       width="250"
       height="425"
       margin="0"
       bleed="0" />
  </sodipodi:namedview>
  <g
     id="g1"
     inkscape:groupmode="layer"
     inkscape:label="1"
     transform="translate(-202.1593,-272.66586)">
    <g
       id="g2"
       transform="translate(42.460992,2.0227861)">
      <path
         id="path1"
         d="m 214.58041,169.47156 -0.074,-0.0928 0.16861,-0.0447 -0.0139,-0.10493 0.10383,0.0338 -0.0935,0.82061 0.20406,2.14418 0.67032,2.64074 0.75268,2.39376 0.76677,1.49995 0.68314,0.75566 0.30661,0.16211 0.72134,0.74526 0.4182,0.73301 0.2072,0.0421 1.58288,1.15686 1.49559,1.42347 1.20008,0.74201 0.826,0.23718 1.36073,0.0905 0.91256,-0.0471 0.90516,-0.25375 0.71242,-0.38281 1.00655,-0.14846 0.61148,0.15229 0.30604,-0.16466 1.29962,-0.2964 0.71618,-0.35686 0.69166,-0.0469 0.74802,-0.22464 0.73208,0.008 4.2381,-1.83049 1.2459,-0.7734 2.22781,-2.84243 0.82942,-1.88861 1.03459,-1.66922 0.82604,-1.77942 0.6076,-0.93209 1.33202,-2.7468 0.15706,-1.2978 -0.0148,-1.8948 0.05,-0.52479 0.10912,-0.17291"
         style="fill:#000000;fill-opacity:0;stroke:#ffffff;stroke-width:1.26872;stroke-linecap:round;stroke-linejoin:round;stroke-miterlimit:10;stroke-dasharray:none;stroke-opacity:1"
         transform="matrix(1.3333334,0,0,-1.3333334,0,792)" />
      <path
         id="path2"
         d="m 213.68517,169.98961 -0.37215,0.54193 -0.4614,-0.0341 -0.2008,0.0789 -0.15331,-0.11023 -2.64764,-0.61415 -1.94805,-0.86768 -4.16427,-2.39465 -3.06008,-2.68064 -1.40823,-1.4236 -1.1626,-1.48143 -0.57505,-1.00084 -1.10169,-2.54243 -1.12158,-3.1272 -0.44098,-1.62021 -0.29294,-1.7053 0.11225,-1.73104 0.12979,-0.12219 0.30613,-1.15155 0.53275,-1.32062 0.21115,-0.21074 0.34366,-0.84347 1.21425,-2.29492 0.75462,-0.96152 0.3878,-0.25926 1.35591,-1.50266 1.41948,-0.72586 0.33699,0.0966 0.35752,-0.08 0.35698,-0.347 1.16942,-0.556 1.21601,-0.42327 1.30863,-0.22158 0.48179,-0.0725 1.05414,0.18867 0.48114,-0.20734 4.85572,-0.67408 3.98275,-0.3666 1.82582,-0.3336 0.82006,-0.27257 1.95201,-0.10229 0.75867,0.15236 0.75326,-0.0907 2.1492,0.0457 1.73644,0.34227 0.84715,0.43968 0.41835,-0.0544 1.248,0.23944 3.29012,0.9808 1.04344,0.44867 2.1652,0.70337 5.3479,2.39388 3.68831,1.42592 2.50981,0.65827 3.63201,1.27338 1.58259,0.41281 1.13849,0.5663 7.48128,5.66336 1.50577,1.0528 0.54742,0.22511 0.78873,1.00272 0.29068,0.81355 -0.0481,1.46487 -0.38531,1.74721 -0.43588,1.18628 -0.59711,1.17902 -0.56778,0.78877 -0.87164,0.87477 -0.23328,0.21399 -0.27289,-0.0222 -0.28232,0.11508 -0.30667,0.30649 -2.04486,0.94775 -1.45148,0.27211 -0.33029,-0.15967 -0.3378,6.1e-4 -0.31305,0.24907 -1.3283,0.41558 -0.60106,0.29634 -1.15146,-0.0561 -0.59082,-0.2361 -0.28269,0.10116 -1.05352,-0.074 -0.42762,0.0631 -0.78714,-0.22313 -0.26231,-0.25891 -0.3838,-0.15332 0.009,-0.12111"
         style="fill:#000000;fill-opacity:0;stroke:#ffffff;stroke-width:1.26872;stroke-linecap:round;stroke-linejoin:round;stroke-miterlimit:10;stroke-dasharray:none;stroke-opacity:1"
         transform="matrix(1.3333334,0,0,-1.3333334,0,792)" />
      <path
         id="path3"
         d="m 194.57391,154.23581 -0.14228,-0.39052 -0.041,0.18059 -0.13873,0.084 -0.58437,-0.20086 -0.21869,0.0887 -0.60679,-0.12761 -0.64881,0.21752 -0.35193,0.31416 -0.1643,-0.0557 -0.77657,0.26267 -0.44012,-0.0251 -1.09371,0.59143 -0.26686,0.41715 -0.33261,0.28264 -0.3125,-0.0362 -1.04092,0.41262 -0.3266,0.2298 -0.70038,0.21353 -1.20107,0.58747 -0.54087,0.42242 -0.27353,0.0148 -1.60421,0.59123 -0.98939,0.70332 -2.14824,1.9372 -1.26059,1.38343 -1.41669,2.02567 -2.36743,4.0005 -1.60742,3.29152 -0.48138,0.62692 -0.59279,1.55687 -1.04332,3.70859 -0.10533,1.07576 -0.50492,2.31288 0.0184,0.51604 -0.23443,1.94551 0.0622,2.09761 0.13647,0.84638 0.38074,0.97749 0.0999,-0.0739 0.22627,0.0521 0.094,0.17407 0.075,-0.11584 0.21984,0.28067 -0.0109,0.48076 0.19154,0.37666 -0.0331,1.03532"
         style="fill:#000000;fill-opacity:0;stroke:#ffffff;stroke-width:1.26872;stroke-linecap:round;stroke-linejoin:round;stroke-miterlimit:10;stroke-dasharray:none;stroke-opacity:1"
         transform="matrix(1.3333334,0,0,-1.3333334,0,792)" />
      <path
         id="path4"
         d="m 175.47606,203.75789 -1.07651,0.8089 -0.51315,0.0345 -0.32303,-0.10376 -1.28711,0.0848 -0.90189,-0.11023 -0.53068,-0.24988 -1.96112,-0.33367 -1.88948,-0.74073 -2.84174,-1.53436 -2.63705,-1.61502 -1.3456,-0.97098 -2.18306,-1.82074 -2.04326,-2.18979 -0.77719,-1.27537 -0.54657,-1.71392 0.16602,-0.7255 0.52774,-0.76848 0.42401,-0.45072 1.35213,-1.03715 0.95486,-0.41785 2.16646,-0.63637 2.62929,-0.49536 2.68361,-0.0237 3.43455,0.33665 2.98302,0.87795 2.25624,0.79716 2.61595,1.29142 3.8437,2.59753 1.15516,1.23573 0.64083,0.99677 0.33377,0.84689 -0.0151,1.10118 -0.38585,0.77387 -0.25365,0.45614 -0.33403,0.18872 -1.40771,2.06995 -1.8869,1.41478 -0.84159,0.36124 -0.41165,0.34173 -1.67891,1.00388 -0.42946,0.22055 -1.84845,0.4187 -1.73886,0.11487 -0.81222,-0.0302 -0.76503,-0.15751 -1.05423,-0.37626"
         style="fill:#000000;fill-opacity:0;stroke:#ffffff;stroke-width:1.26872;stroke-linecap:round;stroke-linejoin:round;stroke-miterlimit:10;stroke-dasharray:none;stroke-opacity:1"
         transform="matrix(1.3333334,0,0,-1.3333334,0,792)" />
      <path
         id="path5"
         d="m 171.11546,198.86656 -0.22526,-0.0446 0.14305,0.1163 0.0112,-0.17755 -0.14079,-0.17636 -0.20276,0.2186 -0.69131,-0.31188 -0.54021,-0.82199 0.21779,-0.32074 1.03033,-0.32733 0.6093,0.007 0.51859,0.19243 0.23706,0.30943 -0.0136,0.65815 -0.14472,0.36541 -0.26242,0.27924 -0.1004,-0.094 -0.30569,0.37166 -0.17284,-0.0101 -0.29095,-0.22225 -0.30324,0.009 -0.14997,0.10509 -0.51431,-0.42776 -0.23543,-0.33027 -0.45733,-0.28215 -0.0628,-0.51304 0.33708,-0.39153 1.04012,-0.19963 0.13582,-0.14558 0.18367,-0.0206 2.17012,0.60719 0.51872,0.47344 -0.0273,0.23866 -0.0967,0.30759 -0.64424,0.54809 -0.2682,0.10794 -0.97826,-0.27559 -0.16402,-0.20784 -0.48266,-0.15744 -0.26102,-0.3051 -0.19969,-0.0197 -0.22907,-0.18507 -0.086,0.0546 -0.0642,-0.48387 0.17422,-0.15712 0.58765,-0.35234 1.01997,-0.13837 1.29991,0.19382 1.09082,0.60231 -1.0697,0.50186 -0.49745,0.0696 -0.12949,0.13796 -0.42897,-0.0608 -1.23436,-0.51078 -0.29371,-0.0302 -0.27866,-0.30254 -0.18259,-0.40031 0.1868,-0.42208 0.27069,0.0176 0.16317,0.15926 0.88455,-0.29135 2.17531,0.55812 0.45402,0.3634 0.0672,0.16773 -0.081,0.2169 -0.61725,0.39284 -0.16298,0.33313 -0.53176,0.11523 -0.25266,-0.088 -0.65037,0.51844 -0.61535,0.032 -0.1385,-0.18026 -0.15012,-0.0266 -0.12251,0.13378 -0.47858,0.0539 -0.29005,0.21643 -0.7202,-0.29868 -0.19563,-0.24153 -0.12723,0.003 -0.48511,-0.40778 -0.046,-0.23645 0.15897,-0.53323 1.78949,-0.45018 1.0475,0.18439 0.4512,0.24907 0.86675,0.28256 0.21783,-0.0118 0.23119,0.51208 -0.17378,0.50458 -0.93264,0.53439 -0.62727,0.11987"
         style="fill:#000000;fill-opacity:0;stroke:#ffffff;stroke-width:1.26872;stroke-linecap:round;stroke-linejoin:round;stroke-miterlimit:10;stroke-dasharray:none;stroke-opacity:1"
         transform="matrix(1.3333334,0,0,-1.3333334,0,792)" />
      <path
         id="path6"
         d="m 156.56175,189.69128 0.089,0.0861 0.17941,-0.11523 -0.16464,-0.18221 0.0889,-0.0581 0.23078,0.25158 0.2531,-0.13415 0.99671,0.26414 0.67681,0.35457 2.82057,0.50815 2.80129,1.03711 1.36758,0.36484 1.21129,0.46788 0.0985,0.18611 0.0123,-0.12642 -0.13279,-0.0173 0.0483,0.1157 -0.10025,-0.0438 0.10151,0.0992 -0.3978,-0.2133"
         style="fill:#000000;fill-opacity:0;stroke:#ffffff;stroke-width:1.26872;stroke-linecap:round;stroke-linejoin:round;stroke-miterlimit:10;stroke-dasharray:none;stroke-opacity:1"
         transform="matrix(1.3333334,0,0,-1.3333334,0,792)" />
      <path
         id="path7"
         d="m 167.8223,202.71791 -0.1556,-0.0422 0.0515,-0.14704 -0.0508,0.11808 0.0346,-0.13594 -0.2342,-0.59378 -0.61679,-1.06642 -0.80099,-1.01326 -0.38629,-0.84816 -0.14006,-0.0226 0.013,-0.39888 0.0738,0.17283 0.10707,0.0716 0.0368,-0.0677 0.17203,0.71764 1.489,2.46896 0.99438,1.40384 0.41587,0.28737 0.11042,0.43721 -0.0228,0.15941 -0.0723,-0.19527 0.021,0.19305 -0.11455,-0.40724 -1.15035,-1.53587 -0.14993,-0.40415 -1.11655,-1.83107 -0.0358,-0.22526 -0.73323,-1.02518 -0.19851,-0.54346 0.19207,0.0274 -0.0391,0.16611 0.20691,0.1678 0.22807,0.7753 2.21773,3.41341 0.24956,0.16652 0.52092,0.90841 -0.005,0.19742 -0.24139,-0.26544 0.0977,-0.0364 -0.0599,-0.066 -0.10682,0.0365 -0.10555,-0.37324 -0.36381,-0.29898 -0.21264,-0.0129 -0.68896,-0.98987 -0.26642,-0.55398 -1.3038,-1.69702 -0.91159,-1.65081 -0.0657,-0.34164 0.0606,-0.0593 0.0131,0.21162 0.0811,-0.15797 0.15745,0.46056 0.001,-0.093 0.0964,0.0385 0.42741,0.46292 0.41011,0.65821 0.80338,0.90632 1.65762,2.53613 0.0686,0.47786 -3.11852,-4.6007 -0.30584,-0.29659 -0.23387,-0.92247 -0.16208,-0.0384 0.20491,-0.19126 0.1284,0.55542 1.41121,1.28456"
         style="fill:#000000;fill-opacity:0;stroke:#ffffff;stroke-width:1.26872;stroke-linecap:round;stroke-linejoin:round;stroke-miterlimit:10;stroke-dasharray:none;stroke-opacity:1"
         transform="matrix(1.3333334,0,0,-1.3333334,0,792)" />
      <path
         id="path8"
         d="m 203.57135,140.2748 0.31525,0.35267 0.0161,-0.10449 -0.69077,-2.33185 -1.79619,-8.73157 -0.48897,-1.87706 -2.2613,-11.71222 -2.40927,-11.68647 -2.5452,-10.938365 -0.61,-2.587082 -1.58719,-5.400818 -1.47702,-6.028404 -0.19022,-0.43074 -0.23013,-1.014847 0.0647,-0.634247 0.0847,1.19516 -0.30541,1.643318"
         style="fill:#000000;fill-opacity:0;stroke:#ffffff;stroke-width:1.26872;stroke-linecap:round;stroke-linejoin:round;stroke-miterlimit:10;stroke-dasharray:none;stroke-opacity:1"
         transform="matrix(1.3333334,0,0,-1.3333334,0,792)" />
      <path
         id="path9"
         d="m 203.01942,140.0766 -0.32721,0.0115 0.12024,-0.0905 0.0153,-0.23572 0.14232,0.009 0.21079,-0.19678 0.9151,-2.72887 0.9957,-5.19793 1.07519,-10.07044 0.40068,-4.76464 1.76784,-16.29388 2.70296,-14.354318 1.05545,-6.626221 0.10701,-1.395798 0.58433,-3.723038 0.0702,0.182404 -0.2108,0.657089 -0.24271,0.292359 -0.67468,1.553382 -0.34613,1.103936"
         style="fill:#000000;fill-opacity:0;stroke:#ffffff;stroke-width:1.26872;stroke-linecap:round;stroke-linejoin:round;stroke-miterlimit:10;stroke-dasharray:none;stroke-opacity:1"
         transform="matrix(1.3333334,0,0,-1.3333334,0,792)" />
      <path
         id="path10"
         d="m 254.74492,146.82799 -0.21999,0.40147 -0.0543,-0.13919 -0.21721,0.73312 0.0441,-0.20076 0.0655,0.0346 0.19391,-1.63129 0.074,-3.45352 -0.0611,-4.9214 -0.4543,-11.17237 -0.54184,-8.82225 -1.1393,-15.52543 -1.19922,-24.182582 -0.38955,4.158966 -0.0748,3.895759"
         style="fill:#000000;fill-opacity:0;stroke:#ffffff;stroke-width:1.26872;stroke-linecap:round;stroke-linejoin:round;stroke-miterlimit:10;stroke-dasharray:none;stroke-opacity:1"
         transform="matrix(1.3333334,0,0,-1.3333334,0,792)" />
      <path
         id="path11"
         d="m 253.54829,147.32622 -0.18449,0.50876 -0.006,0.60632 0.0787,-0.21318 -0.0424,-0.30193 0.17491,-0.61778 0.12841,-0.16699 1.3191,-4.18276 1.57944,-3.86633 2.53351,-7.32097 5.76712,-15.27849 3.20483,-7.56142 2.27149,-4.48471 1.15304,-2.75694 0.90943,-2.788761 0.86337,-3.536766 0.23273,-1.377869 0.45056,-3.960578 0.1745,-2.468995 0.16699,-1.449653 0.0675,0.273239 -0.11554,0.874573 -0.19361,0.343467 -0.29434,0.172028 -0.19928,0.374596 -0.14499,1.209289"
         style="fill:#000000;fill-opacity:0;stroke:#ffffff;stroke-width:1.26872;stroke-linecap:round;stroke-linejoin:round;stroke-miterlimit:10;stroke-dasharray:none;stroke-opacity:1"
         transform="matrix(1.3333334,0,0,-1.3333334,0,792)" />
      <path
         id="path12"
         d="m 199.66281,237.94664 -0.21513,0.0612 -0.11429,0.20211 0.0912,0.11538 0.15659,-0.36186 0.32534,-1.19551 1.71849,-8.00633 2.99688,-11.37708 1.66549,-4.09744 2.09412,-4.13187 0.30687,-0.85455 0.12543,-0.90988 0.0728,-0.1017 0.0202,0.14932 -0.0926,0.0114 -0.0333,0.17674 0.0999,-0.0965 -0.055,0.40988 0.0381,-0.14062 0.11625,0.47181"
         style="fill:#000000;fill-opacity:0;stroke:#ffffff;stroke-width:1.26872;stroke-linecap:round;stroke-linejoin:round;stroke-miterlimit:10;stroke-dasharray:none;stroke-opacity:1"
         transform="matrix(1.3333334,0,0,-1.3333334,0,792)" />
      <path
         id="path13"
         d="m 256.578,241.48654 -0.25375,0.28891 0.0668,0.0838 0.0792,-0.58725 0.0919,0.0127 0.69751,-4.36142 0.79853,-3.96975 0.93371,-4.05138 1.34204,-4.57964 0.76566,-2.06334 0.96759,-3.38247 1.93176,-5.00385 0.61304,-1.25598 1.08609,-1.26965 0.2536,-0.10074 0.0994,0.14468 -0.2887,0.40991 -0.21463,0.0735 0.008,0.17575 -0.0128,-0.14435 -0.0259,0.12572 -0.10925,-0.0173 -0.21225,1.09825"
         style="fill:#000000;fill-opacity:0;stroke:#ffffff;stroke-width:1.26872;stroke-linecap:round;stroke-linejoin:round;stroke-miterlimit:10;stroke-dasharray:none;stroke-opacity:1"
         transform="matrix(1.3333334,0,0,-1.3333334,0,792)" />
      <path
         id="path14"
         d="m 199.47989,239.05661 -0.41826,0.15523 -0.0528,-0.1711 0.0215,0.27022 0.31231,-0.35486 1.59796,-0.3799 1.1593,0.024 1.48735,0.24122 5.92549,0.2512 4.54176,0.53362 2.55042,0.51399 6.61755,0.50276 2.83435,-0.0844 1.42933,0.22247 6.92628,0.56134 6.0473,0.11189 2.10161,-0.11824 7.15852,0.44165 4.51281,0.37883 -0.21863,0.0897 -0.82027,-0.14589 -0.70657,0.35726"
         style="fill:#000000;fill-opacity:0;stroke:#ffffff;stroke-width:1.26872;stroke-linecap:round;stroke-linejoin:round;stroke-miterlimit:10;stroke-dasharray:none;stroke-opacity:1"
         transform="matrix(1.3333334,0,0,-1.3333334,0,792)" />
      <path
         id="path15"
         d="m 198.3866,253.39394 -0.0724,0.13815 0.11996,0.0273 0.0845,-0.34705 -0.006,-0.80983 -0.80273,-6.64352 -0.16565,-5.98686 0.10141,-2.43891 0.21031,-1.14068 0.2543,-0.18325 0.0703,0.11325 -0.0133,0.37781 -0.0941,-0.15987 -0.012,0.30893 0.4243,1.58568"
         style="fill:#000000;fill-opacity:0;stroke:#ffffff;stroke-width:1.26872;stroke-linecap:round;stroke-linejoin:round;stroke-miterlimit:10;stroke-dasharray:none;stroke-opacity:1"
         transform="matrix(1.3333334,0,0,-1.3333334,0,792)" />
      <path
         id="path16"
         d="m 257.57669,255.03084 -0.14767,1.43339 -0.0617,0.0978 -0.0298,-0.13 0.1579,-1.21358 -0.42511,-6.77528 0.10092,-6.52099 0.29471,-2.00793 0.0534,0.17798 -0.23258,0.99014 0.0231,0.62361"
         style="fill:#000000;fill-opacity:0;stroke:#ffffff;stroke-width:1.26872;stroke-linecap:round;stroke-linejoin:round;stroke-miterlimit:10;stroke-dasharray:none;stroke-opacity:1"
         transform="matrix(1.3333334,0,0,-1.3333334,0,792)" />
      <path
         id="path17"
         d="m 202.35678,235.59628 -0.57905,-0.11523 -0.11344,-0.26544 -0.0427,0.14402 -0.19092,0.0634 0.0115,0.1545 0.16547,-0.0215 0.13271,-0.20084 0.39363,0.0872 0.40287,-0.17556 0.2659,-0.24662 2.13849,-0.41391 1.46749,-0.51697 0.5693,-0.33424 1.9399,-0.45955 1.18815,-0.47919 0.6288,-0.5174 0.3416,0.0771 1.11818,-0.15646 0.80963,0.0345 2.31652,-0.28299 1.11427,-0.28183 0.53815,0.10524 2.64601,0.087 2.33172,-0.18767 2.12909,-0.42668 2.46858,-0.76437 1.46836,-0.71618 0.59071,-0.45564 3.5479,-0.70804 0.3038,-0.26452 0.34593,-0.13109 0.36217,0.10898 1.76689,-0.0302 2.03089,-0.24702 1.44474,-0.38099 0.56856,0.0337 3.32128,-1.46095 1.762,-0.4316 1.27129,-0.44801 0.49236,-0.41181 0.24714,0.0415 1.24281,-0.23483 2.32332,-0.70878 4.64238,-0.73782 1.43607,-0.59668 0.61549,-0.3817 0.22922,-0.34102 1.26178,-0.76008 0.61252,-0.24227 0.66028,-0.0182 0.28155,0.0996 1.47357,-0.1894 0.17417,0.11564 0.8902,-0.24884 0.003,-0.11337"
         style="fill:#000000;fill-opacity:0;stroke:#ffffff;stroke-width:1.26872;stroke-linecap:round;stroke-linejoin:round;stroke-miterlimit:10;stroke-dasharray:none;stroke-opacity:1"
         transform="matrix(1.3333334,0,0,-1.3333334,0,792)" />
      <path
         id="path18"
         d="m 203.90813,214.24377 0.19581,0.34522 0.0748,-0.0761 0.8638,0.23836 0.94251,0.49564 0.19912,-0.0251 1.09559,0.36168 5.14993,2.30122 2.88663,1.04275 2.43174,0.67568 2.41747,0.98016 2.40968,1.05197 2.90872,1.48934 4.92217,1.98602 2.44713,0.86942 3.77711,1.0335 2.43874,0.90149 0.92366,0.46787 4.56175,1.34085 2.56525,1.0128 0.45732,0.0691 2.03727,0.69055 0.25605,-0.0378 0.56738,0.34045 0.1727,0.22222 0.34529,0.0632 0.19461,-0.26994 0.36604,0.55089 0.13451,0.12073 0.12537,-0.0664 0.60405,0.56924 2.27774,1.20383 0.54293,0.23595 0.27759,-0.15309 0.14859,0.18547 1.00771,0.58209 0.66223,0.18185 0.35095,-0.1968 0.13571,0.17694 0.31446,0.14203 0.10708,0.24942 -0.18954,-0.3768 -0.48587,-0.001 -0.13458,-0.14994 -0.69635,-0.0941"
         style="fill:#000000;fill-opacity:0;stroke:#ffffff;stroke-width:1.26872;stroke-linecap:round;stroke-linejoin:round;stroke-miterlimit:10;stroke-dasharray:none;stroke-opacity:1"
         transform="matrix(1.3333334,0,0,-1.3333334,0,792)" />
      <path
         id="path19"
         d="m 197.43082,236.66762 0.22476,0.86326 -0.30213,-1.4349 -0.0177,-0.17984 0.0806,0.0563 -0.1008,0.22006"
         style="fill:#000000;fill-opacity:0;stroke:#ffffff;stroke-width:1.26872;stroke-linecap:round;stroke-linejoin:round;stroke-miterlimit:10;stroke-dasharray:none;stroke-opacity:1"
         transform="matrix(1.3333334,0,0,-1.3333334,0,792)" />
      <path
         id="path20"
         d="m 194.32828,228.97893 -0.23407,-0.0113 0.11574,-0.1299 -0.20084,-0.48065 -0.23511,-0.34944 -0.0328,0.0965 -0.1431,-0.56026"
         style="fill:#000000;fill-opacity:0;stroke:#ffffff;stroke-width:1.26872;stroke-linecap:round;stroke-linejoin:round;stroke-miterlimit:10;stroke-dasharray:none;stroke-opacity:1"
         transform="matrix(1.3333334,0,0,-1.3333334,0,792)" />
      <path
         id="path21"
         d="m 191.7963,222.82829 -0.35494,-0.66394 -0.15144,-0.15066 -0.007,0.17416 0.11084,-0.12115 0.1797,0.20428 -0.006,-0.16344 -0.54222,-0.88417"
         style="fill:#000000;fill-opacity:0;stroke:#ffffff;stroke-width:1.26872;stroke-linecap:round;stroke-linejoin:round;stroke-miterlimit:10;stroke-dasharray:none;stroke-opacity:1"
         transform="matrix(1.3333334,0,0,-1.3333334,0,792)" />
      <path
         id="path22"
         d="m 189.49715,215.79329 -0.084,0.24945 -0.21283,0.10211 -0.14477,-0.3508 -0.0572,0.0382 -0.53203,-0.67059 -0.38571,-0.32683 -0.18419,0.0884"
         style="fill:#000000;fill-opacity:0;stroke:#ffffff;stroke-width:1.26872;stroke-linecap:round;stroke-linejoin:round;stroke-miterlimit:10;stroke-dasharray:none;stroke-opacity:1"
         transform="matrix(1.3333334,0,0,-1.3333334,0,792)" />
      <path
         id="path23"
         d="m 254.34216,240.64806 -0.1363,-0.13053 -0.31157,0.0844 0.0758,-0.22805 -0.12743,-0.0139 -0.85452,-1.4383 -0.26569,-0.63204 0.0575,-0.0718"
         style="fill:#000000;fill-opacity:0;stroke:#ffffff;stroke-width:1.26872;stroke-linecap:round;stroke-linejoin:round;stroke-miterlimit:10;stroke-dasharray:none;stroke-opacity:1"
         transform="matrix(1.3333334,0,0,-1.3333334,0,792)" />
      <path
         id="path24"
         d="m 251.59123,236.02103 -0.31309,0.0532 -0.66791,-0.26643 -0.18892,-0.21283 -0.12396,-0.38919 -0.043,0.10782 -0.46365,-0.44875 -0.0884,-0.39894 -0.18866,-0.0911 -0.0591,0.0663 0.0201,-0.21794 0.0664,0.2674 0.1602,0.0292"
         style="fill:#000000;fill-opacity:0;stroke:#ffffff;stroke-width:1.26872;stroke-linecap:round;stroke-linejoin:round;stroke-miterlimit:10;stroke-dasharray:none;stroke-opacity:1"
         transform="matrix(1.3333334,0,0,-1.3333334,0,792)" />
      <path
         id="path25"
         d="m 246.77966,231.26343 -0.60711,-0.17382 -0.0891,-0.45536 -0.20328,-0.2153 -0.37245,-0.78731 -0.21729,-0.19916 -0.11247,0.0368 -0.48308,-0.63176 -0.0199,-0.19358 0.1791,0.13148"
         style="fill:#000000;fill-opacity:0;stroke:#ffffff;stroke-width:1.26872;stroke-linecap:round;stroke-linejoin:round;stroke-miterlimit:10;stroke-dasharray:none;stroke-opacity:1"
         transform="matrix(1.3333334,0,0,-1.3333334,0,792)" />
      <path
         id="path26"
         d="m 242.59181,224.41025 -0.23334,0.0709 -0.20347,-0.68401 -0.27001,0.10923 -0.22398,-0.62627 -0.33383,-0.42868 -0.18045,-0.0868 -0.32678,0.16487"
         style="fill:#000000;fill-opacity:0;stroke:#ffffff;stroke-width:1.26872;stroke-linecap:round;stroke-linejoin:round;stroke-miterlimit:10;stroke-dasharray:none;stroke-opacity:1"
         transform="matrix(1.3333334,0,0,-1.3333334,0,792)" />
      <path
         id="path27"
         d="m 240.13203,220.2493 -0.0236,-0.36267 -0.23347,-0.0615 -0.13786,-0.22391 -0.79363,-0.64752 -1.62784,-1.69722 0.0628,-0.0616"
         style="fill:#000000;fill-opacity:0;stroke:#ffffff;stroke-width:1.26872;stroke-linecap:round;stroke-linejoin:round;stroke-miterlimit:10;stroke-dasharray:none;stroke-opacity:1"
         transform="matrix(1.3333334,0,0,-1.3333334,0,792)" />
      <path
         id="path28"
         d="m 193.62354,219.76598 -0.30852,-0.0114 0.3688,-0.053 0.0399,0.19928 0.3453,-0.10819 0.61106,0.13924 0.42454,-0.0179 0.19568,-0.13388 0.56517,0.0863 0.52747,-0.0508 0.51567,0.28365"
         style="fill:#000000;fill-opacity:0;stroke:#ffffff;stroke-width:1.26872;stroke-linecap:round;stroke-linejoin:round;stroke-miterlimit:10;stroke-dasharray:none;stroke-opacity:1"
         transform="matrix(1.3333334,0,0,-1.3333334,0,792)" />
      <path
         id="path29"
         d="m 202.92384,223.26642 -0.21412,0.27379 -0.0107,0.16961 0.0799,-0.52737 0.16864,0.17795 0.33688,-0.48932 0.20205,0.13655 0.34712,0.0344 0.85513,0.86924 0.47875,0.30384"
         style="fill:#000000;fill-opacity:0;stroke:#ffffff;stroke-width:1.26872;stroke-linecap:round;stroke-linejoin:round;stroke-miterlimit:10;stroke-dasharray:none;stroke-opacity:1"
         transform="matrix(1.3333334,0,0,-1.3333334,0,792)" />
      <path
         id="path30"
         d="m 211.74384,225.95186 -0.31579,-0.33302 0.0105,-0.22554 0.16777,0.27676 0.0426,-0.10907 0.14251,0.12846 0.72724,0.0645 1.03733,0.2811"
         style="fill:#000000;fill-opacity:0;stroke:#ffffff;stroke-width:1.26872;stroke-linecap:round;stroke-linejoin:round;stroke-miterlimit:10;stroke-dasharray:none;stroke-opacity:1"
         transform="matrix(1.3333334,0,0,-1.3333334,0,792)" />
      <path
         id="path31"
         d="m 216.46548,226.87006 -0.45288,-0.45258 0.30385,0.15906 0.54834,-0.2305 0.80039,0.0788"
         style="fill:#000000;fill-opacity:0;stroke:#ffffff;stroke-width:1.26872;stroke-linecap:round;stroke-linejoin:round;stroke-miterlimit:10;stroke-dasharray:none;stroke-opacity:1"
         transform="matrix(1.3333334,0,0,-1.3333334,0,792)" />
      <path
         id="path32"
         d="m 223.37083,227.91379 -0.40307,-0.14972 -0.10567,0.10446 -0.0172,-0.17532 0.26199,0.39238 0.0279,-0.0698 0.24099,0.0453 0.24001,0.14086 0.13376,0.21581 0.75497,0.005"
         style="fill:#000000;fill-opacity:0;stroke:#ffffff;stroke-width:1.26872;stroke-linecap:round;stroke-linejoin:round;stroke-miterlimit:10;stroke-dasharray:none;stroke-opacity:1"
         transform="matrix(1.3333334,0,0,-1.3333334,0,792)" />
      <path
         id="path33"
         d="m 229.85429,230.13065 -0.45477,0.0619 -0.14833,-0.0727 0.28867,-0.0377 0.048,0.20145 0.37305,-0.32226 0.6364,0.34739 0.69598,0.0575 0.62402,0.41258 0.454,0.0881 0.46225,0.32477"
         style="fill:#000000;fill-opacity:0;stroke:#ffffff;stroke-width:1.26872;stroke-linecap:round;stroke-linejoin:round;stroke-miterlimit:10;stroke-dasharray:none;stroke-opacity:1"
         transform="matrix(1.3333334,0,0,-1.3333334,0,792)" />
      <path
         id="path34"
         d="m 234.45499,232.86299 -0.08,0.0735 -0.12898,-0.10729 -0.32132,-0.41583 0.18994,0.14279 0.18532,-0.007 0.14621,0.19064 0.19787,-0.0183 0.72631,0.28397"
         style="fill:#000000;fill-opacity:0;stroke:#ffffff;stroke-width:1.26872;stroke-linecap:round;stroke-linejoin:round;stroke-miterlimit:10;stroke-dasharray:none;stroke-opacity:1"
         transform="matrix(1.3333334,0,0,-1.3333334,0,792)" />
      <path
         id="path35"
         d="m 240.75548,234.60803 -0.0952,-0.4189 0.21747,0.25203 2.09323,0.69267"
         style="fill:#000000;fill-opacity:0;stroke:#ffffff;stroke-width:1.26872;stroke-linecap:round;stroke-linejoin:round;stroke-miterlimit:10;stroke-dasharray:none;stroke-opacity:1"
         transform="matrix(1.3333334,0,0,-1.3333334,0,792)" />
      <path
         id="path36"
         d="m 245.3438,236.53075 -0.1796,-0.19185 0.23819,-0.0636 0.82629,0.22786"
         style="fill:#000000;fill-opacity:0;stroke:#ffffff;stroke-width:1.26872;stroke-linecap:round;stroke-linejoin:round;stroke-miterlimit:10;stroke-dasharray:none;stroke-opacity:1"
         transform="matrix(1.3333334,0,0,-1.3333334,0,792)" />
      <path
         id="path37"
         d="m 201.06703,237.74844 0.17534,-0.0937 -0.0576,-0.1181 -0.0664,0.0613 -0.19537,-0.52503 0.18886,-0.69166 0.24493,-0.1744 0.15645,0.0471 0.23053,-0.28193 0.63069,-0.31104 0.37781,0.0338 0.30975,0.15457 0.21285,-0.0878"
         style="fill:#000000;fill-opacity:0;stroke:#ffffff;stroke-width:1.26872;stroke-linecap:round;stroke-linejoin:round;stroke-miterlimit:10;stroke-dasharray:none;stroke-opacity:1"
         transform="matrix(1.3333334,0,0,-1.3333334,0,792)" />
      <path
         id="path38"
         d="m 206.26506,233.39461 -0.10809,0.0939 0.0233,-0.0739 0.053,0.0596 0.048,-0.46256 0.23968,-0.46737 0.18831,-0.7266 0.24533,-0.24411 0.13892,0.12525 0.13765,-0.21294 0.21612,-0.10455 0.25208,0.0525 0.44545,0.29319"
         style="fill:#000000;fill-opacity:0;stroke:#ffffff;stroke-width:1.26872;stroke-linecap:round;stroke-linejoin:round;stroke-miterlimit:10;stroke-dasharray:none;stroke-opacity:1"
         transform="matrix(1.3333334,0,0,-1.3333334,0,792)" />
      <path
         id="path39"
         d="m 208.95952,230.44217 0.0894,-0.28745 0.13692,0.0159 0.21914,-0.24521 0.48256,-0.15475 0.43032,-0.86533 0.40707,-0.4175 0.15537,-0.0326 0.58099,-0.64749"
         style="fill:#000000;fill-opacity:0;stroke:#ffffff;stroke-width:1.26872;stroke-linecap:round;stroke-linejoin:round;stroke-miterlimit:10;stroke-dasharray:none;stroke-opacity:1"
         transform="matrix(1.3333334,0,0,-1.3333334,0,792)" />
      <path
         id="path40"
         d="m 215.25781,228.65807 -0.16005,-0.64415 0.13329,-0.36486 0.4956,0.16228 0.0848,-0.0504"
         style="fill:#000000;fill-opacity:0;stroke:#ffffff;stroke-width:1.26872;stroke-linecap:round;stroke-linejoin:round;stroke-miterlimit:10;stroke-dasharray:none;stroke-opacity:1"
         transform="matrix(1.3333334,0,0,-1.3333334,0,792)" />
      <path
         id="path41"
         d="m 219.63556,225.71292 0.0643,0.19429 0.18807,-0.51306 0.16282,0.0292 0.11469,-0.13962"
         style="fill:#000000;fill-opacity:0;stroke:#ffffff;stroke-width:1.26872;stroke-linecap:round;stroke-linejoin:round;stroke-miterlimit:10;stroke-dasharray:none;stroke-opacity:1"
         transform="matrix(1.3333334,0,0,-1.3333334,0,792)" />
      <path
         id="path42"
         d="m 223.08461,224.71898 -0.0763,0.094 0.12606,-0.17211 0.10079,0.16191 0.0961,-0.21449 0.23365,0.1949 0.22876,-0.0712"
         style="fill:#000000;fill-opacity:0;stroke:#ffffff;stroke-width:1.26872;stroke-linecap:round;stroke-linejoin:round;stroke-miterlimit:10;stroke-dasharray:none;stroke-opacity:1"
         transform="matrix(1.3333334,0,0,-1.3333334,0,792)" />
      <path
         id="path43"
         d="m 229.39267,222.94608 -0.17009,-0.4517 0.0948,-0.33848 0.0869,0.49084 0.19044,-0.49482 0.68744,-0.0211"
         style="fill:#000000;fill-opacity:0;stroke:#ffffff;stroke-width:1.26872;stroke-linecap:round;stroke-linejoin:round;stroke-miterlimit:10;stroke-dasharray:none;stroke-opacity:1"
         transform="matrix(1.3333334,0,0,-1.3333334,0,792)" />
      <path
         id="path44"
         d="m 233.92229,222.62614 -0.14939,-0.62963 0.0367,0.12793 0.13466,0.0299 0.0753,-0.12741 0.29071,-0.0387 0.38028,-0.53152 0.0966,0.0191 0.32036,-0.36793 0.69938,0.0482"
         style="fill:#000000;fill-opacity:0;stroke:#ffffff;stroke-width:1.26872;stroke-linecap:round;stroke-linejoin:round;stroke-miterlimit:10;stroke-dasharray:none;stroke-opacity:1"
         transform="matrix(1.3333334,0,0,-1.3333334,0,792)" />
      <path
         id="path45"
         d="m 238.03764,220.78067 -0.12384,-0.4359 0.0544,-0.15777 0.99866,0.32736"
         style="fill:#000000;fill-opacity:0;stroke:#ffffff;stroke-width:1.26872;stroke-linecap:round;stroke-linejoin:round;stroke-miterlimit:10;stroke-dasharray:none;stroke-opacity:1"
         transform="matrix(1.3333334,0,0,-1.3333334,0,792)" />
      <path
         id="path46"
         d="m 191.01292,383.98712 0.16398,-0.0315 -0.10323,0.006 0.36052,0.3143"
         style="fill:#000000;fill-opacity:0;stroke:#ffffff;stroke-width:1.26872;stroke-linecap:round;stroke-linejoin:round;stroke-miterlimit:10;stroke-dasharray:none;stroke-opacity:1"
         transform="matrix(1.3333334,0,0,-1.3333334,0,792)" />
      <path
         id="path47"
         d="m 190.77728,384.5535 0.25923,0.19449 -0.0961,0.036 0.0223,-0.14145 -0.0571,0.13101 0.0559,0.27811 0.12119,-0.18216 -0.0413,-2.59024 0.40422,-1.11917 -0.0986,-2.7533 0.20662,-0.98489 0.0899,0.0329 0.2019,-0.8865 0.22393,-0.33899 0.10209,-0.003 0.42604,-0.70334 0.0827,0.0249 0.18574,-0.25949 0.15726,-0.37372 0.23514,0.0281 0.20315,-0.2434 0.24486,-0.0305 0.16385,0.12875 0.36157,-0.40796 0.34117,-0.0635 0.22583,0.089 0.21944,-0.15845 1.55972,-0.36347 0.39775,-0.28277 0.38756,0.0273 0.25217,-0.12262 0.33082,0.0924 0.15198,0.20953 0.0231,-0.0981 0.65147,-0.0981 2.2865,0.30918 1.0379,0.38656 0.18048,0.12018 0.0794,0.20984 0.29428,-0.055 0.93463,0.41595 0.15721,-0.0461 1.3658,1.14017 0.17256,0.30575 0.18724,-0.0867 0.11611,0.17804 0.1437,-0.2034 0.18274,0.41626 0.1181,0.0608 0.0895,-0.0699 0.38033,0.5617 0.11113,-0.0105 0.0207,0.1026 0.003,-0.15217 0.0723,0.26004 0.15504,-0.19238 0.33592,0.5918 0.19584,0.14001 0.12828,-0.13141 0.27356,0.46869 0.17088,-0.0277 0.0243,-0.091 -0.0422,0.19061 -0.005,-0.47433 0.078,0.45285 0.10604,-0.18158 0.22229,0.12729 0.2132,-0.5455 0.1662,-0.13361 0.069,-0.36117 0.0928,0.18301 0.20215,-0.88177 0.14674,-0.15937 0.057,0.0834 0.46097,-2.39579 0.0785,-0.0512 0.0211,0.14538 0.10704,-0.90121 -0.17415,-1.91993 -0.3038,-1.17816 -0.0141,-0.55624 -0.16104,-0.67493 -0.13939,-0.3204 -0.0653,0.0572 -0.22615,-1.04743 -0.19376,-0.39624 -0.22392,-1.62704 -0.30847,-1.27148 -0.20456,-0.32038 -0.25015,-0.75345 -0.095,-0.13272 -0.004,0.13626 -0.36468,-1.6904 -0.545,-1.74063 -0.54069,-3.03293 -0.12864,-2.13751 0.0211,-1.76089 0.39974,-2.05063 0.0595,0.0278 0.25223,-0.84875 0.3121,-0.57862 0.16812,-0.0544 0.0485,-0.1376 0.0717,0.20092 0.11095,-0.22573 0.0807,-0.0485 0.0237,0.12366 0.0385,-0.25595 0.30748,-0.24335 0.66466,-0.10968 0.25907,0.1081 0.10674,0.16946 0.37787,-0.0406 0.12211,-0.10907 0.2114,0.0828 0.0935,0.1886 0.14987,-0.17579 0.0437,0.091 0.0568,-0.19226 0.14249,0.13238 0.38853,-0.16562 0.0839,0.0884 0.79931,0.016 0.39255,0.12006 0.13484,0.19907 0.0506,-0.076 0.27491,0.0119 0.11642,-0.18237 0.23464,0.44867 0.16848,-0.0808 0.066,-0.18191 0.1346,0.0399 0.0815,0.20181 0.0555,-0.10275 0.32071,-0.0957 0.77569,0.30814 0.65848,0.12384 0.0845,0.17804 0.2458,0.0104 0.0858,-0.13497 0.15001,0.2908 0.21862,-0.0784 0.058,-0.15973 0.16022,0.37234 0.48584,0.17231 0.0849,0.19891 0.50243,-0.13437 0.27441,0.26993 0.3723,0.14383 0.13945,-0.0788 0.35567,0.58139 0.2462,0.12662 0.10647,-0.1611 0.33074,0.61993 0.22482,-0.0473 0.29178,0.38724 0.0904,0.34625 0.0413,-0.0596 0.16625,0.0904 0.0846,0.18845 0.33651,0.17111 0.12263,0.21283 0.49725,0.35635 0.0524,-0.0788 0.37213,0.46792 0.0864,-0.0995 0.45593,0.8548 0.3896,0.0384 0.40438,0.48471 0.19262,0.42038 0.0802,-0.044 0.59623,0.36682 0.0595,0.15915 0.40368,0.0948 0.35252,0.37067 0.0959,-0.0763 0.28558,0.28268 0.15314,0.40958 0.0713,-0.058 0.22729,0.13928 0.21291,-0.0154 0.30285,0.27167 0.16065,0.30954 0.0498,-0.0819 0.51211,0.13635 0.13991,0.22068 0.79887,0.14028 0.51174,0.3476 0.37039,0.10696 0.18683,-0.0856 0.37179,0.34973 0.16141,0.35645 0.14708,-0.10941 0.68733,0.1316 0.18956,0.2228 0.59648,0.10196 0.58225,0.42072 1.64235,0.68408 0.30662,-0.0521 0.68445,0.23175 0.34056,0.1709 0.19246,0.2214 0.55423,0.11267 1.95569,1.10327 0.79202,-0.0519 0.70299,0.0853 0.86922,0.26425 0.26933,-0.0347 0.83055,0.32547 0.86304,-0.15348 0.38527,-0.25244 1.04735,-0.36282 0.30635,0.0266 0.17366,-0.0872 0.1976,0.0969 0.83136,-0.27581 0.15178,0.0825 0.6364,-0.35156 0.26957,-0.27575 0.51848,-0.2349 0.39476,-0.42218 0.14218,-0.0616 0.0744,0.10779 0.20056,-0.3819 0.0657,0.0945 0.19249,-0.51825 0.74633,-0.7944 0.10337,-0.29074 0.0402,0.12793 0.30578,-0.92514 0.0232,0.0634 0.13156,-0.0841 0.0734,0.0971 0.26886,-0.46688 0.28758,-0.26664 0.38074,-0.77066 0.2693,-0.27484 0.34724,-0.91012 0.22565,-0.27378 0.25482,-0.0505 0.28871,-0.5463 1.18943,-0.5405 0.13664,-0.17251 0.31525,-0.0937 0.15769,0.18951 0.42347,-0.50482 0.23842,-0.0464 0.13253,0.1709 0.35068,-0.52514 0.069,0.0961 0.25978,0.0119 0.35605,-0.27112 0.30989,-0.0642 0.24826,-0.0369 0.26969,0.3078 0.22665,-0.0205 0.0473,-0.15564 0.31327,0.46805 0.17486,-0.0223 0.10966,-0.15836 0.33827,0.47419 0.0664,-0.12702 0.33597,0.86524 0.23291,0.25842 0.23825,0.57812 0.19772,0.1901 0.1019,-0.13224 0.0382,0.19172 0.49197,0.71524 0.11353,-0.15741 0.3454,0.80462 0.5299,0.70334 0.2334,0.57831 0.24841,1.40646 0.0389,0.0703 0.0304,-0.11234 0.0434,0.19144 0.067,1.04242 0.26364,0.92135 -0.0666,5.10126 -0.1784,0.18259 -0.22138,1.03845 -0.34472,2.7052 -0.24515,0.73337 -0.22382,0.28976 -0.10504,0.63272 -0.0482,0.0738 -0.0361,-0.10147 -0.28894,0.99622 -0.37936,0.86316 -0.0514,0.61068 -0.14695,0.36722 0.0547,1.37323 0.10828,0.52432 0.14392,0.2186 0.42407,2.65497 0.30258,1.09824 0.49607,0.61502 0.44104,0.93774 0.65591,0.69486 0.15655,0.42944 0.63971,0.82989 0.12806,0.51273 0.0696,-0.0436 0.0566,0.13767 0.0186,0.30752 0.0486,-0.0478 0.0337,0.14179 0.0284,-0.10285 0.33542,0.81088 0.27722,1.23838 -0.083,-0.32331 -0.004,0.51041 -0.0167,-0.0687 -0.0612,0.0693 -0.0199,-0.13666 -0.14105,0.18646 -0.1018,0.42804 -0.0142,-0.16171 -0.44082,-0.0946 -0.10086,0.21362 -0.86579,0.0204 -0.60305,0.26861 -0.41868,0.0118 -0.21817,-0.23614 -0.13284,-3e-5 -0.10483,0.11667 -0.36065,0.036 -0.23188,0.28476 -0.0885,-0.11719 -1.35382,-0.3905 -0.10721,0.25033 -0.16125,0.0917 -0.25815,-0.29807 -1.09297,-0.23175 -1.81191,0.15241 -0.39372,-0.15842 -0.86181,0.13977 -0.31974,0.15726 -0.86866,-0.25449 -0.58213,-0.0174 -0.24505,0.27911 -0.0773,-0.16083 -0.2448,-0.0444 -0.35993,-0.25363 -0.28662,0.0519 -0.17395,0.27612 -0.0708,-0.14529 -0.95195,-0.2475 -0.22195,0.14142 -0.34755,-0.22144 -0.38889,-0.0731 -0.75477,-0.35239 -0.5013,-0.0883 -0.25044,0.1332 -0.57022,-0.16549 -0.10186,-0.1189 -0.59735,0.0883 -0.21615,0.24765 -0.098,-0.10516 -0.34583,-0.0376 -0.10151,0.15335 -0.23795,-0.18488 -0.51964,-0.10745 -0.28807,0.069 -0.87588,-0.45175 -1.20119,-0.2294 -1.60698,0.0205 -0.28467,0.143 -1.62696,-0.14132 -0.54868,0.14239 -1.09554,-0.34729 -0.9727,-0.0284 -0.41714,0.0805 -1.25641,-0.32864 -1.61942,-3.7e-4 -4.18078,-0.32519 -0.43195,0.0838 -1.21629,-0.21588 -3.99315,0.44904 -1.46954,-0.0748 -1.57494,0.0861 -3.89053,-0.14676 -0.83696,-0.10602 -0.17867,-0.10422 -1.02818,8e-4 -0.33182,-0.11506 -0.6855,0.0536 -0.34363,-0.18048 -1.19827,0.16916 -0.94466,-0.12109 -0.38212,0.0798 -1.90969,-0.34177 -3.36705,-0.31384 -0.33711,-0.19577 -0.61018,0.0505 -0.75281,-0.0848 -0.45972,-0.2001 -0.30694,0.0474 -0.26578,-0.15201 -0.67335,-0.12307 -1.488,0.2239 -0.77148,-0.1246 -2.34854,-0.86328 -0.60431,-0.33746 -0.18388,0.11489 -0.35599,-0.0323 -0.25546,0.13891 -0.18136,0.32764 -0.32556,0.0492 -0.77751,0.003 -0.21199,-0.0962 -1.20656,-0.10386 -0.21562,-0.17138 -0.0664,0.0395"
         style="fill:#000000;fill-opacity:0;stroke:#ffffff;stroke-width:1.26872;stroke-linecap:round;stroke-linejoin:round;stroke-miterlimit:10;stroke-dasharray:none;stroke-opacity:1"
         transform="matrix(1.3333334,0,0,-1.3333334,0,792)" />
      <path
         id="path48"
         d="m 206.64906,376.17984 0.12137,0.16534 0.0217,0.27317 -0.0688,-0.48404 -0.39496,-1.26676 -0.34405,-0.63653 -0.0379,-0.38022 -0.3337,-0.36151 -0.0463,-0.26138 -0.0615,0.0908 0.008,-0.17819"
         style="fill:#000000;fill-opacity:0;stroke:#ffffff;stroke-width:1.26872;stroke-linecap:round;stroke-linejoin:round;stroke-miterlimit:10;stroke-dasharray:none;stroke-opacity:1"
         transform="matrix(1.3333334,0,0,-1.3333334,0,792)" />
      <path
         id="path49"
         d="m 206.02127,371.44186 -0.27876,-0.27792 -0.3378,-0.66464 -0.45845,-0.42563 -0.47186,-0.87381 -0.5297,-0.4436 -0.24374,-0.61719 -0.14346,-0.14154 -0.0616,0.0525 0.0555,-0.31412 0.0374,0.19754 -0.0131,-0.23038 -0.24774,-1.03909 -0.20114,-0.22974 -0.0695,-0.46456 -0.1187,0.17224 -0.11158,-0.36148 -0.23688,-0.17212 -0.0528,-0.22055 -0.20103,-0.0934 -0.0371,-0.93432 -0.73399,-2.38614 -0.24518,-0.2114 -0.33138,-0.59616 -0.0621,-0.36526 -0.025,0.0742 -0.19961,-0.0361"
         style="fill:#000000;fill-opacity:0;stroke:#ffffff;stroke-width:1.26872;stroke-linecap:round;stroke-linejoin:round;stroke-miterlimit:10;stroke-dasharray:none;stroke-opacity:1"
         transform="matrix(1.3333334,0,0,-1.3333334,0,792)" />
      <path
         id="path50"
         d="m 200.38037,358.52863 -0.0927,0.14498 -0.26376,0.0591 -0.23892,-0.85147 -0.27512,-0.27066 -0.35434,-0.92572 0.0796,-0.0401"
         style="fill:#000000;fill-opacity:0;stroke:#ffffff;stroke-width:1.26872;stroke-linecap:round;stroke-linejoin:round;stroke-miterlimit:10;stroke-dasharray:none;stroke-opacity:1"
         transform="matrix(1.3333334,0,0,-1.3333334,0,792)" />
      <path
         id="path51"
         d="m 199.71416,353.65759 0.14853,-0.34558 0.0393,0.10382 0.10101,-0.38559 0.22415,-0.0648 0.0645,-0.13412 0.25493,0.21982 0.56506,0.2427"
         style="fill:#000000;fill-opacity:0;stroke:#ffffff;stroke-width:1.26872;stroke-linecap:round;stroke-linejoin:round;stroke-miterlimit:10;stroke-dasharray:none;stroke-opacity:1"
         transform="matrix(1.3333334,0,0,-1.3333334,0,792)" />
      <path
         id="path52"
         d="m 203.17184,352.31992 0.1108,-0.20914 0.28357,0.16974 0.6658,-0.0709 0.41812,0.17254 0.21408,0.20694 0.49103,0.1145 0.18561,0.27979"
         style="fill:#000000;fill-opacity:0;stroke:#ffffff;stroke-width:1.26872;stroke-linecap:round;stroke-linejoin:round;stroke-miterlimit:10;stroke-dasharray:none;stroke-opacity:1"
         transform="matrix(1.3333334,0,0,-1.3333334,0,792)" />
      <path
         id="path53"
         d="m 189.67052,382.19415 -0.0877,-0.33148 0.0951,-0.003 0.0419,0.229 0.11064,-0.0254 -0.0664,0.0168 -0.0509,-0.31466 -0.82889,-1.32724 -0.21707,-0.73258 -0.19344,-0.14258 -0.19421,-0.44616"
         style="fill:#000000;fill-opacity:0;stroke:#ffffff;stroke-width:1.26872;stroke-linecap:round;stroke-linejoin:round;stroke-miterlimit:10;stroke-dasharray:none;stroke-opacity:1"
         transform="matrix(1.3333334,0,0,-1.3333334,0,792)" />
      <path
         id="path54"
         d="m 188.0041,376.82245 0.11556,-0.38495 -0.25488,-0.26093 -1.08087,-2.02621 -0.0508,-0.41037 0.0326,0.0698 0.1601,-0.23242 0.14215,0.17557"
         style="fill:#000000;fill-opacity:0;stroke:#ffffff;stroke-width:1.26872;stroke-linecap:round;stroke-linejoin:round;stroke-miterlimit:10;stroke-dasharray:none;stroke-opacity:1"
         transform="matrix(1.3333334,0,0,-1.3333334,0,792)" />
      <path
         id="path55"
         d="m 188.72833,373.14099 0.0968,-0.324 -0.0941,-0.41291 0.005,-0.88028 0.25293,-0.59918 0.34868,-0.0614 0.18161,-0.19043 0.34222,0.51468 0.26308,0.18359 0.10878,-0.0351 0.0365,0.10818"
         style="fill:#000000;fill-opacity:0;stroke:#ffffff;stroke-width:1.26872;stroke-linecap:round;stroke-linejoin:round;stroke-miterlimit:10;stroke-dasharray:none;stroke-opacity:1"
         transform="matrix(1.3333334,0,0,-1.3333334,0,792)" />
      <path
         id="path56"
         d="m 192.16766,371.94644 0.0419,-0.57605 1.7e-4,0.13342 0.30929,-0.31387 0.17584,0.0898 0.4639,-0.0961 0.30504,0.16727 0.12917,0.20422 0.38374,0.15763 0.16081,-0.0777 0.48642,0.64401 0.39411,0.28406 0.13438,-0.0775 0.2402,0.19067 0.0844,-0.42221 0.18477,-0.12183 0.30403,0.004 0.21163,0.32498 0.1327,-0.10385 0.007,-0.15823 0.23616,0.21893 0.16768,0.0463 0.093,-0.23343 0.20502,0.19891"
         style="fill:#000000;fill-opacity:0;stroke:#ffffff;stroke-width:1.26872;stroke-linecap:round;stroke-linejoin:round;stroke-miterlimit:10;stroke-dasharray:none;stroke-opacity:1"
         transform="matrix(1.3333334,0,0,-1.3333334,0,792)" />
      <path
         id="path57"
         d="m 198.5995,373.67905 0.26811,-0.0226 0.153,-0.20273 0.0991,0.24222 0.091,-0.10196 0.33037,0.42456 0.91983,0.76578"
         style="fill:#000000;fill-opacity:0;stroke:#ffffff;stroke-width:1.26872;stroke-linecap:round;stroke-linejoin:round;stroke-miterlimit:10;stroke-dasharray:none;stroke-opacity:1"
         transform="matrix(1.3333334,0,0,-1.3333334,0,792)" />
      <path
         id="path58"
         d="m 237.24466,362.61868 0.0737,-0.0666 0.31261,0.34183 0.29965,0.053 0.1952,-0.0728 0.31981,-0.45172 0.28502,-1.28573 0.0345,-0.59726 0.0416,0.20874 0.10588,0.0552"
         style="fill:#000000;fill-opacity:0;stroke:#ffffff;stroke-width:1.26872;stroke-linecap:round;stroke-linejoin:round;stroke-miterlimit:10;stroke-dasharray:none;stroke-opacity:1"
         transform="matrix(1.3333334,0,0,-1.3333334,0,792)" />
      <path
         id="path59"
         d="m 241.75659,361.19043 -0.37149,-0.10666 0.32366,-1.66836 0.736,-0.39875 0.0929,0.10483 0.28276,-0.49548"
         style="fill:#000000;fill-opacity:0;stroke:#ffffff;stroke-width:1.26872;stroke-linecap:round;stroke-linejoin:round;stroke-miterlimit:10;stroke-dasharray:none;stroke-opacity:1"
         transform="matrix(1.3333334,0,0,-1.3333334,0,792)" />
      <path
         id="path60"
         d="m 244.32413,356.01096 0.40237,-0.24817 0.20748,-0.42676 0.15797,-0.15491 0.099,0.0245 0.28817,-0.35703 0.33988,0.0829 0.18107,-0.0676"
         style="fill:#000000;fill-opacity:0;stroke:#ffffff;stroke-width:1.26872;stroke-linecap:round;stroke-linejoin:round;stroke-miterlimit:10;stroke-dasharray:none;stroke-opacity:1"
         transform="matrix(1.3333334,0,0,-1.3333334,0,792)" />
      <path
         id="path61"
         d="m 248.43109,353.03571 0.62047,0.9974 0.37274,0.20938 0.26779,-0.0646 0.0922,-0.13593 0.38905,0.38602 0.36983,0.16278 0.0813,0.19186"
         style="fill:#000000;fill-opacity:0;stroke:#ffffff;stroke-width:1.26872;stroke-linecap:round;stroke-linejoin:round;stroke-miterlimit:10;stroke-dasharray:none;stroke-opacity:1"
         transform="matrix(1.3333334,0,0,-1.3333334,0,792)" />
      <path
         id="path62"
         d="m 204.76457,320.435 -0.10533,0.0274 0.33511,-0.36932 0.37439,-1.17975 0.4208,-2.79623 0.24142,-2.28254 0.19151,-5.75821 0.19228,-2.55706 0.94107,-8.71335 0.59767,-3.87225 0.26335,-2.37992 0.52214,-2.17099 0.26084,-0.71628 0.44684,-2.62118 0.24177,-3.37515 0.21796,-1.67032 0.13856,-0.12198 0.014,-0.44141 0.0451,-0.0742 0.0389,0.14594 0.34079,-3.26846 0.0707,0.48489 0.0567,-0.27484 -0.003,0.31323 0.0521,-0.25668 0.50773,-0.005 0.16756,-0.11472 0.16757,0.11438 0.93717,0.17621 0.26106,-0.14365 0.87816,0.36182 0.68896,-0.12817 0.31696,0.0953 0.62923,-0.0749 0.3399,0.14939 0.61948,-0.0928 0.46545,0.0881 0.6405,-0.0399 0.32109,0.13992 1.95672,0.1485 0.47096,-0.10098 1.17225,0.27804 1.42768,0.18277 0.23462,-0.0458 0.49383,0.24783 2.316,0.13754 0.41882,0.14984 1.16243,-0.0764 0.92677,0.0777 0.60079,0.16303 1.06816,-0.0111 1.40349,0.16468 0.51678,0.1658 2.55228,0.38006 0.48115,0.14884 0.47771,-0.0227 2.49437,0.32773 0.81993,0.19458 0.18214,0.1442 0.36153,-0.2251 0.33916,0.17975 1.32861,0.2196 0.33621,0.31095 0.33307,-0.0888 0.47212,0.0286 0.33956,-0.21042 0.47302,0.18911 2.73917,0.35218 0.25493,0.19504 0.59811,-0.0111 0.24342,0.26425 0.26352,-0.13919 0.47968,0.10651 0.56068,-0.09 0.10777,-0.2255 0.14994,-0.0699 0.10919,0.16623 0.31079,0.0969 0.1973,0.2009 0.49257,-0.0241 0.19587,-0.16861 0.70517,0.25671 0.93312,0.005 0.34375,0.19253 0.32523,-0.006 0.16348,-0.21549 0.5367,0.42002 0.28708,-0.0573 0.2165,-0.31415 0.51967,0.42862 0.46831,-0.0863 0.1586,-0.25589 0.07,0.11194 0.63797,0.22006 0.37091,-0.041 0.17733,0.25027 0.17903,-0.20388 0.019,0.16339 0.0135,-0.37757 0.10817,0.41318 0.0322,-0.1113 0.0618,0.19449 0.0402,-0.22153 0.19653,1.76252 0.12024,9.41342 -0.0509,2.46756 -0.10765,1.63345 -0.24895,1.2844 -0.29288,2.84606 -0.10303,3.28821 0.0367,2.56455 -0.1352,2.90759 -0.63812,6.66873 -0.11076,2.38147 0.17909,5.72452 -0.13924,0.72275 -0.0149,2.40847 -0.1201,0.15799 -0.0475,-0.1108 -0.0157,0.27505 -0.0423,-0.13824 -0.73889,-0.4314 -0.77405,-0.14966 -0.32541,0.0328 -0.69566,-0.168 -0.28313,0.0807 -2.43633,-0.005 -0.64477,-0.16238 -0.24423,-0.19693 -0.42929,0.32245 -0.20978,-0.18515 -2.86521,-0.91104 -2.56002,-0.42945 -2.99729,0.31266 -3.38997,-0.96964 -0.37713,-0.29355 -0.18146,-0.0252 -0.92957,0.0162 -0.39503,0.11783 -0.77681,-0.18222 -0.3653,-0.22843 -0.32983,0.15372 -1.7688,0.24991 -0.40629,-0.11792 -0.58184,0.12506 -0.77029,-0.0845 -1.30109,-0.23175 -0.8293,-0.30655 -0.3985,-0.25714 -0.8155,-0.11914 -0.38822,0.11889 -0.18232,-0.0571 -0.16751,-0.13983 -0.60921,-0.14761 -0.16734,-0.3566 -0.27701,-0.17349 -0.21147,0.18481 -0.88359,-0.0535 -0.4119,0.0753 -0.77405,-0.0421 -0.42457,-0.23777 -0.18847,0.11216 -0.90652,0.0993 -0.90402,-0.1289 -0.3501,-0.18827 -0.17853,0.035 -1.75026,-0.4022 -1.14139,-0.3677 -0.35047,-0.40997 -0.14354,0.096 -0.47576,-0.0489 -0.35824,0.12133 -0.87595,-0.24896 -0.31468,-0.40503 -0.13114,0.1546 -0.55542,0.12912 -0.25257,0.18692 -0.47442,0.0649 -0.23873,-0.2073 -0.10482,0.15295 -0.56315,0.3006 -0.57831,0.009 -2.85742,-0.79528 -0.29949,-0.41437 -0.11122,0.12317 -0.51568,-0.0132 -0.24061,0.10691 -0.47203,-0.091 -0.25265,-0.30041 -0.75675,0.45679 -0.83882,-0.0172 -0.16639,0.15723 -0.25557,-0.20288 0.10298,-0.009"
         style="fill:#000000;fill-opacity:0;stroke:#ffffff;stroke-width:1.26872;stroke-linecap:round;stroke-linejoin:round;stroke-miterlimit:10;stroke-dasharray:none;stroke-opacity:1"
         transform="matrix(1.3333334,0,0,-1.3333334,0,792)" />
      <path
         id="path63"
         d="m 206.34387,303.64691 0.0196,0.3758 0.10379,-0.14307 0.22617,-0.006 0.98513,-0.66055 0.22493,-0.003 0.70739,-0.38025 1.69496,-0.0272 0.64611,0.1892 0.40624,-0.041 1.66859,0.79462 1.21471,0.30813 0.7189,-0.0831 0.34975,0.21884 1.4951,0.40711 0.75945,0.39026 1.92279,0.11551 1.47175,0.41812 1.1052,-0.0901 0.45627,-0.23212 1.17485,0.15952 2.75401,-0.0381 1.46561,0.36533 1.28083,0.0441 1.5337,0.32632 0.85542,0.10281 0.44322,-0.10891 0.91016,0.26016 0.43844,0.23987 0.41777,-0.0603 1.19667,0.0822 1.05303,0.2291 0.47304,0.24728 1.17454,0.15671 0.46346,-0.0347 0.87097,0.25308 1.41815,0.18689 2.55287,0.1391 0.29237,0.0869 0.79213,-0.0925 0.72091,0.13421 0.3526,-0.0819 0.7355,0.16864 0.39563,-0.095 0.90669,0.39658 2.47951,0.41922 0.952,0.28802 1.74417,0.2345 0.30829,-0.0577 0.82623,0.21924 0.78857,-0.0135 2.4783,0.68024 0.084,-0.0565 0.0244,0.11908 -0.0846,-0.21042 -0.0565,0.0996 0.002,-0.19125 -0.15387,0.13968"
         style="fill:#000000;fill-opacity:0;stroke:#ffffff;stroke-width:1.26872;stroke-linecap:round;stroke-linejoin:round;stroke-miterlimit:10;stroke-dasharray:none;stroke-opacity:1"
         transform="matrix(1.3333334,0,0,-1.3333334,0,792)" />
      <path
         id="path64"
         d="m 211.81561,277.16391 -0.0795,0.14587 -0.28276,-0.29553 -0.51009,-3.85425 -0.46634,-2.33682 -0.26706,-2.1228"
         style="fill:#000000;fill-opacity:0;stroke:#ffffff;stroke-width:1.26872;stroke-linecap:round;stroke-linejoin:round;stroke-miterlimit:10;stroke-dasharray:none;stroke-opacity:1"
         transform="matrix(1.3333334,0,0,-1.3333334,0,792)" />
      <path
         id="path65"
         d="m 212.55568,276.12045 -0.59401,-0.35611 -0.19937,-0.29193 0.0115,-0.39865 0.79512,-4.31149 0.1869,-0.53327 0.27971,-0.36807"
         style="fill:#000000;fill-opacity:0;stroke:#ffffff;stroke-width:1.26872;stroke-linecap:round;stroke-linejoin:round;stroke-miterlimit:10;stroke-dasharray:none;stroke-opacity:1"
         transform="matrix(1.3333334,0,0,-1.3333334,0,792)" />
      <path
         id="path66"
         d="m 213.31538,275.93591 -0.0837,0.0234 -0.0483,-0.36356 0.37132,-1.66336 0.49282,-0.7984 0.25036,-0.0212 0.84143,-1.25363 0.42641,-0.5076 0.18021,-0.0835 0.24139,-0.64743 -0.0882,-0.17399 -0.14433,0.17572"
         style="fill:#000000;fill-opacity:0;stroke:#ffffff;stroke-width:1.26872;stroke-linecap:round;stroke-linejoin:round;stroke-miterlimit:10;stroke-dasharray:none;stroke-opacity:1"
         transform="matrix(1.3333334,0,0,-1.3333334,0,792)" />
      <path
         id="path67"
         d="m 215.78886,276.57358 -0.30992,-0.26624 -0.16681,-0.37039 -0.2163,-1.04031 0.0829,-0.40631 0.35848,-0.57282 0.46443,-1.12604 0.40155,-0.61145 0.34114,-1.57748"
         style="fill:#000000;fill-opacity:0;stroke:#ffffff;stroke-width:1.26872;stroke-linecap:round;stroke-linejoin:round;stroke-miterlimit:10;stroke-dasharray:none;stroke-opacity:1"
         transform="matrix(1.3333334,0,0,-1.3333334,0,792)" />
      <path
         id="path68"
         d="m 224.71709,277.87827 -0.0995,-0.17463 -0.2345,0.17981 -0.21931,-0.11105 -1.12322,-2.45245 -0.44691,-0.68906 -0.2936,-1.36874 -0.42808,-1.24921 0.0997,-0.41644"
         style="fill:#000000;fill-opacity:0;stroke:#ffffff;stroke-width:1.26872;stroke-linecap:round;stroke-linejoin:round;stroke-miterlimit:10;stroke-dasharray:none;stroke-opacity:1"
         transform="matrix(1.3333334,0,0,-1.3333334,0,792)" />
      <path
         id="path69"
         d="m 224.4149,277.02667 0.0325,-0.20093 -0.32276,-0.5025 -0.20933,-0.7926 -0.57636,-1.24246 -0.45988,-1.82056 0.0584,-0.32254 0.38888,-0.11691 0.49576,0.1875 0.33124,0.25094 0.32709,0.44635"
         style="fill:#000000;fill-opacity:0;stroke:#ffffff;stroke-width:1.26872;stroke-linecap:round;stroke-linejoin:round;stroke-miterlimit:10;stroke-dasharray:none;stroke-opacity:1"
         transform="matrix(1.3333334,0,0,-1.3333334,0,792)" />
      <path
         id="path70"
         d="m 225.0686,276.67838 -0.47232,0.67111 -0.56769,-0.0702 -0.0542,-0.54087 0.52873,-1.54202 0.29685,-0.50949 0.64346,-0.69903 0.51744,-0.39466 0.31395,-0.14804 0.10727,0.0562 0.24182,-0.2221"
         style="fill:#000000;fill-opacity:0;stroke:#ffffff;stroke-width:1.26872;stroke-linecap:round;stroke-linejoin:round;stroke-miterlimit:10;stroke-dasharray:none;stroke-opacity:1"
         transform="matrix(1.3333334,0,0,-1.3333334,0,792)" />
      <path
         id="path71"
         d="m 225.26053,280.22668 0.14613,0.0475 0.16268,-0.21118 0.25227,-0.72833 0.34264,-1.79956 0.7145,-1.56998 1.1883,-1.53995 0.41235,-0.6958 0.29463,-0.0829 0.12247,0.27433 0.0407,-0.13474 0.12593,-0.005"
         style="fill:#000000;fill-opacity:0;stroke:#ffffff;stroke-width:1.26872;stroke-linecap:round;stroke-linejoin:round;stroke-miterlimit:10;stroke-dasharray:none;stroke-opacity:1"
         transform="matrix(1.3333334,0,0,-1.3333334,0,792)" />
      <path
         id="path72"
         d="m 236.14027,279.31601 -0.21182,0.32458 -0.0818,-0.52929 -0.44452,-0.92996 -0.52162,-2.33756 -0.49623,-1.63837 -0.11537,-1.29641 0.13795,0.66626 0.0781,-0.0415 0.59287,1.59717"
         style="fill:#000000;fill-opacity:0;stroke:#ffffff;stroke-width:1.26872;stroke-linecap:round;stroke-linejoin:round;stroke-miterlimit:10;stroke-dasharray:none;stroke-opacity:1"
         transform="matrix(1.3333334,0,0,-1.3333334,0,792)" />
      <path
         id="path73"
         d="m 236.89043,278.5842 -0.25341,-0.56192 0.27048,-2.45154 0.0189,-1.79587 0.10522,-0.44659 0.40553,0.48587"
         style="fill:#000000;fill-opacity:0;stroke:#ffffff;stroke-width:1.26872;stroke-linecap:round;stroke-linejoin:round;stroke-miterlimit:10;stroke-dasharray:none;stroke-opacity:1"
         transform="matrix(1.3333334,0,0,-1.3333334,0,792)" />
      <path
         id="path74"
         d="m 237.03174,278.7258 -0.18474,-0.71851 -6e-5,-0.49188 0.41603,-1.09646 2.39761,-3.19407 0.38465,-0.0842 0.0314,0.20526"
         style="fill:#000000;fill-opacity:0;stroke:#ffffff;stroke-width:1.26872;stroke-linecap:round;stroke-linejoin:round;stroke-miterlimit:10;stroke-dasharray:none;stroke-opacity:1"
         transform="matrix(1.3333334,0,0,-1.3333334,0,792)" />
      <path
         id="path75"
         d="m 239.25844,279.20721 0.0201,-0.39605 0.43604,-1.27295 0.42348,-0.49823 1.03058,-1.61334 1.2927,-1.31589 0.4927,-0.63498 0.21589,-0.08"
         style="fill:#000000;fill-opacity:0;stroke:#ffffff;stroke-width:1.26872;stroke-linecap:round;stroke-linejoin:round;stroke-miterlimit:10;stroke-dasharray:none;stroke-opacity:1"
         transform="matrix(1.3333334,0,0,-1.3333334,0,792)" />
      <path
         id="path76"
         d="m 248.68501,280.49597 -0.10209,0.89142 -1.21836,-1.98007 -0.95555,-2.31177 -0.33153,-1.08621 -0.14172,-0.68356 0.0479,-0.32102 0.18767,0.54904 0.27872,0.33405"
         style="fill:#000000;fill-opacity:0;stroke:#ffffff;stroke-width:1.26872;stroke-linecap:round;stroke-linejoin:round;stroke-miterlimit:10;stroke-dasharray:none;stroke-opacity:1"
         transform="matrix(1.3333334,0,0,-1.3333334,0,792)" />
      <path
         id="path77"
         d="m 249.39923,280.45325 -0.65817,-0.78913 -0.38396,-1.02368 -0.0202,-2.6419 0.20083,-0.55622 0.37392,-0.57132 0.41841,-0.2272 0.38152,-0.0211 0.29617,0.0476 0.25047,0.18332"
         style="fill:#000000;fill-opacity:0;stroke:#ffffff;stroke-width:1.26872;stroke-linecap:round;stroke-linejoin:round;stroke-miterlimit:10;stroke-dasharray:none;stroke-opacity:1"
         transform="matrix(1.3333334,0,0,-1.3333334,0,792)" />
      <path
         id="path78"
         d="m 249.51479,280.69745 0.60296,-2.1817 0.86008,-1.77982 0.15808,0.0119 0.50864,-1.02887 0.31784,-0.22918 0.55357,-0.25461 0.13335,-0.16052 0.22601,0.31768"
         style="fill:#000000;fill-opacity:0;stroke:#ffffff;stroke-width:1.26872;stroke-linecap:round;stroke-linejoin:round;stroke-miterlimit:10;stroke-dasharray:none;stroke-opacity:1"
         transform="matrix(1.3333334,0,0,-1.3333334,0,792)" />
      <path
         id="path79"
         d="m 251.87025,281.1329 -0.15974,0.0535 -0.0804,-0.17755 -0.0116,-0.56747 0.45611,-1.00531 0.65558,-0.78464 1.56995,-1.45404 0.59355,-0.40048 0.31486,-0.0533 0.75147,-0.40253 0.21953,-0.24444 0.3081,0.0699"
         style="fill:#000000;fill-opacity:0;stroke:#ffffff;stroke-width:1.26872;stroke-linecap:round;stroke-linejoin:round;stroke-miterlimit:10;stroke-dasharray:none;stroke-opacity:1"
         transform="matrix(1.3333334,0,0,-1.3333334,0,792)" />
      <path
         id="path80"
         d="m 203.23648,319.42859 -0.0194,-0.10846 0.10817,-0.007 -0.11481,-0.73764 -0.91072,-3.60605 -0.13169,-1.17855 0.17586,-0.31492"
         style="fill:#000000;fill-opacity:0;stroke:#ffffff;stroke-width:1.26872;stroke-linecap:round;stroke-linejoin:round;stroke-miterlimit:10;stroke-dasharray:none;stroke-opacity:1"
         transform="matrix(1.3333334,0,0,-1.3333334,0,792)" />
      <path
         id="path81"
         d="m 202.28101,308.67871 -0.22596,-0.89758 -0.0346,0.0985 -0.0592,-0.0506 -0.23076,-1.26517 -0.3676,-0.88473 -0.44716,-1.69531 -0.48103,-0.92011"
         style="fill:#000000;fill-opacity:0;stroke:#ffffff;stroke-width:1.26872;stroke-linecap:round;stroke-linejoin:round;stroke-miterlimit:10;stroke-dasharray:none;stroke-opacity:1"
         transform="matrix(1.3333334,0,0,-1.3333334,0,792)" />
      <path
         id="path82"
         d="m 201.63852,300.02161 -0.0631,0.0454 -0.25334,-0.32364 0.0789,-0.63517 -0.26512,-1.76962 -0.31372,-1.04068 -0.39558,-0.8164 -0.22263,-0.95035 0.0271,-0.5708 0.14534,-0.15985"
         style="fill:#000000;fill-opacity:0;stroke:#ffffff;stroke-width:1.26872;stroke-linecap:round;stroke-linejoin:round;stroke-miterlimit:10;stroke-dasharray:none;stroke-opacity:1"
         transform="matrix(1.3333334,0,0,-1.3333334,0,792)" />
      <path
         id="path83"
         d="m 199.91168,289.8551 -0.33699,-0.19412 -0.28696,-0.31934 -0.19816,-1.18695 -1.01782,-3.08227 -0.22225,-1.28238"
         style="fill:#000000;fill-opacity:0;stroke:#ffffff;stroke-width:1.26872;stroke-linecap:round;stroke-linejoin:round;stroke-miterlimit:10;stroke-dasharray:none;stroke-opacity:1"
         transform="matrix(1.3333334,0,0,-1.3333334,0,792)" />
      <path
         id="path84"
         d="m 198.36948,283.90814 0.10527,-0.0395 -0.0327,-0.25641 -0.77518,-2.1055 -0.47792,-1.85199 -0.0284,-0.15545 0.0798,-0.0549"
         style="fill:#000000;fill-opacity:0;stroke:#ffffff;stroke-width:1.26872;stroke-linecap:round;stroke-linejoin:round;stroke-miterlimit:10;stroke-dasharray:none;stroke-opacity:1"
         transform="matrix(1.3333334,0,0,-1.3333334,0,792)" />
      <path
         id="path85"
         d="m 198.18573,279.57535 0.0299,-0.0729 0.31128,0.0463 0.27131,0.25595 0.89922,0.24118 0.56888,-0.24014 0.33209,-0.0329 1.00264,-0.48505 0.87459,-0.11825 0.0343,-0.13562 0.12857,0.20855 -0.0922,0.34943"
         style="fill:#000000;fill-opacity:0;stroke:#ffffff;stroke-width:1.26872;stroke-linecap:round;stroke-linejoin:round;stroke-miterlimit:10;stroke-dasharray:none;stroke-opacity:1"
         transform="matrix(1.3333334,0,0,-1.3333334,0,792)" />
      <path
         id="path86"
         d="m 204.19817,279.74228 0.13588,0.60373 0.12031,-0.29032 0.27606,-0.23098 0.81118,0.0719 0.16336,-0.17432 0.52729,0.40018 0.3871,-0.12384 0.27108,0.0442 0.14402,0.27096 0.0445,-0.10629 0.31693,-0.0752 0.31171,0.0573 0.14079,0.13003 0.15352,-0.14523"
         style="fill:#000000;fill-opacity:0;stroke:#ffffff;stroke-width:1.26872;stroke-linecap:round;stroke-linejoin:round;stroke-miterlimit:10;stroke-dasharray:none;stroke-opacity:1"
         transform="matrix(1.3333334,0,0,-1.3333334,0,792)" />
      <path
         id="path87"
         d="m 208.16254,279.53702 0.12033,0.31357 0.87275,-0.19764 0.84464,0.032 1.23761,0.2615 0.64798,-0.0271"
         style="fill:#000000;fill-opacity:0;stroke:#ffffff;stroke-width:1.26872;stroke-linecap:round;stroke-linejoin:round;stroke-miterlimit:10;stroke-dasharray:none;stroke-opacity:1"
         transform="matrix(1.3333334,0,0,-1.3333334,0,792)" />
      <path
         id="path88"
         d="m 200.03162,277.79126 -0.10904,0.3718 0.13298,0.25347 0.18506,0.006 -0.0129,0.15469 -1.09857,-3.28073"
         style="fill:#000000;fill-opacity:0;stroke:#ffffff;stroke-width:1.26872;stroke-linecap:round;stroke-linejoin:round;stroke-miterlimit:10;stroke-dasharray:none;stroke-opacity:1"
         transform="matrix(1.3333334,0,0,-1.3333334,0,792)" />
      <path
         id="path89"
         d="m 199.43649,274.48135 -0.41409,-0.49066 -1.27669,-2.08127 -0.004,-0.17675 0.14799,0.0979 0.41727,0.94995"
         style="fill:#000000;fill-opacity:0;stroke:#ffffff;stroke-width:1.26872;stroke-linecap:round;stroke-linejoin:round;stroke-miterlimit:10;stroke-dasharray:none;stroke-opacity:1"
         transform="matrix(1.3333334,0,0,-1.3333334,0,792)" />
      <path
         id="path90"
         d="m 202.26556,277.9895 -0.14917,-0.24493 -0.0477,0.0489 0.15114,-0.27387 0.27678,-0.098 0.98109,-0.98761"
         style="fill:#000000;fill-opacity:0;stroke:#ffffff;stroke-width:1.26872;stroke-linecap:round;stroke-linejoin:round;stroke-miterlimit:10;stroke-dasharray:none;stroke-opacity:1"
         transform="matrix(1.3333334,0,0,-1.3333334,0,792)" />
      <path
         id="path91"
         d="m 203.09764,273.48679 -0.18051,0.0494 -0.36713,-0.14389 -0.47671,-2.54562 -0.008,-0.28769 0.12789,0.2825"
         style="fill:#000000;fill-opacity:0;stroke:#ffffff;stroke-width:1.26872;stroke-linecap:round;stroke-linejoin:round;stroke-miterlimit:10;stroke-dasharray:none;stroke-opacity:1"
         transform="matrix(1.3333334,0,0,-1.3333334,0,792)" />
      <path
         id="path92"
         d="m 200.29051,276.24026 -0.004,-1.13403 0.26276,-2.85748 -0.12516,-0.21283"
         style="fill:#000000;fill-opacity:0;stroke:#ffffff;stroke-width:1.26872;stroke-linecap:round;stroke-linejoin:round;stroke-miterlimit:10;stroke-dasharray:none;stroke-opacity:1"
         transform="matrix(1.3333334,0,0,-1.3333334,0,792)" />
      <path
         id="path93"
         d="m 205.30867,278.91876 -0.61774,-0.14728 0.76485,-0.49884 0.20697,-0.0376 0.70432,-0.84418 0.58342,-0.32562"
         style="fill:#000000;fill-opacity:0;stroke:#ffffff;stroke-width:1.26872;stroke-linecap:round;stroke-linejoin:round;stroke-miterlimit:10;stroke-dasharray:none;stroke-opacity:1"
         transform="matrix(1.3333334,0,0,-1.3333334,0,792)" />
      <path
         id="path94"
         d="m 208.55431,277.9744 -0.10598,0.0789 -3e-5,-0.2695 -0.0666,0.19178 -0.27019,-2.42789"
         style="fill:#000000;fill-opacity:0;stroke:#ffffff;stroke-width:1.26872;stroke-linecap:round;stroke-linejoin:round;stroke-miterlimit:10;stroke-dasharray:none;stroke-opacity:1"
         transform="matrix(1.3333334,0,0,-1.3333334,0,792)" />
      <path
         id="path95"
         d="m 205.66153,272.66556 -0.16748,-0.003 -0.12944,-0.20438 -0.057,0.20868 0.78134,-0.94086 0.21009,-0.0984 0.49423,-0.005"
         style="fill:#000000;fill-opacity:0;stroke:#ffffff;stroke-width:1.26872;stroke-linecap:round;stroke-linejoin:round;stroke-miterlimit:10;stroke-dasharray:none;stroke-opacity:1"
         transform="matrix(1.3333334,0,0,-1.3333334,0,792)" />
      <path
         id="path96"
         d="m 205.35217,276.82843 -0.38905,-0.0483 -0.0384,-0.1012 0.14162,0.16929 0.11934,-0.0994 0.26047,-0.68671 0.80519,-2.95669"
         style="fill:#000000;fill-opacity:0;stroke:#ffffff;stroke-width:1.26872;stroke-linecap:round;stroke-linejoin:round;stroke-miterlimit:10;stroke-dasharray:none;stroke-opacity:1"
         transform="matrix(1.3333334,0,0,-1.3333334,0,792)" />
      <path
         id="path97"
         d="m 229.30705,351.59033 0.0132,0.15421 0.13246,0.10199 0.15832,-0.2829 0.0327,0.13495 -0.006,-0.2013 -0.0462,0.29816 -0.18228,-0.19125"
         style="fill:#000000;fill-opacity:0;stroke:#ffffff;stroke-width:1.26872;stroke-linecap:round;stroke-linejoin:round;stroke-miterlimit:10;stroke-dasharray:none;stroke-opacity:1"
         transform="matrix(1.3333334,0,0,-1.3333334,0,792)" />
      <path
         id="path98"
         d="m 229.57738,347.26675 -0.22704,-0.8598 0.0304,-0.23376 0.054,-0.0599 0.0337,0.0764 -0.077,0.52878"
         style="fill:#000000;fill-opacity:0;stroke:#ffffff;stroke-width:1.26872;stroke-linecap:round;stroke-linejoin:round;stroke-miterlimit:10;stroke-dasharray:none;stroke-opacity:1"
         transform="matrix(1.3333334,0,0,-1.3333334,0,792)" />
      <path
         id="path99"
         d="m 229.01321,341.08401 -0.41388,-0.005 0.15877,-0.17676 0.15059,0.0641 0.10172,-0.20133 0.0334,0.38144 -0.0537,-0.12118 -0.0761,0.11148"
         style="fill:#000000;fill-opacity:0;stroke:#ffffff;stroke-width:1.26872;stroke-linecap:round;stroke-linejoin:round;stroke-miterlimit:10;stroke-dasharray:none;stroke-opacity:1"
         transform="matrix(1.3333334,0,0,-1.3333334,0,792)" />
      <path
         id="path100"
         d="m 228.21875,336.46805 0.50125,-0.11505 0.0242,-0.12925 -0.11047,0.11695"
         style="fill:#000000;fill-opacity:0;stroke:#ffffff;stroke-width:1.26872;stroke-linecap:round;stroke-linejoin:round;stroke-miterlimit:10;stroke-dasharray:none;stroke-opacity:1"
         transform="matrix(1.3333334,0,0,-1.3333334,0,792)" />
      <path
         id="path101"
         d="m 224.69933,335.14429 0.007,0.14938 0.21442,-0.38846 0.0411,0.11331 0.0842,-0.29116 0.9095,-1.27649 0.67464,-1.38343 0.64233,-0.92892 0.22801,-0.59027 0.88799,-0.5043 0.21216,0.35199 0.10217,0.0706 0.036,-0.0701 0.13366,0.1601 0.25426,-0.15119 0.27556,0.61792 0.0396,-0.0645 0.24351,0.24631 0.54331,1.31027 0.14111,0.0657 0.43323,0.81104 1.24392,2.70209 1.5009,2.68179 -0.0948,0.27661 -0.17229,-0.51211"
         style="fill:#000000;fill-opacity:0;stroke:#ffffff;stroke-width:1.26872;stroke-linecap:round;stroke-linejoin:round;stroke-miterlimit:10;stroke-dasharray:none;stroke-opacity:1"
         transform="matrix(1.3333334,0,0,-1.3333334,0,792)" />
      <path
         id="path102"
         d="m 228.32458,267.60358 0.0401,0.29638 0.0409,-0.18414 -0.0346,-0.62408 -0.16381,-0.91846 0.0416,-0.13617 0.082,0.31049 -0.0723,0.44088"
         style="fill:#000000;fill-opacity:0;stroke:#ffffff;stroke-width:1.26872;stroke-linecap:round;stroke-linejoin:round;stroke-miterlimit:10;stroke-dasharray:none;stroke-opacity:1"
         transform="matrix(1.3333334,0,0,-1.3333334,0,792)" />
      <path
         id="path103"
         d="m 227.85178,261.84778 -0.23293,-0.0587 -0.16072,0.0699 0.25937,-0.50763 -0.051,-1.24081 0.0386,0.24166 0.0391,-0.16619 -0.0633,0.72995"
         style="fill:#000000;fill-opacity:0;stroke:#ffffff;stroke-width:1.26872;stroke-linecap:round;stroke-linejoin:round;stroke-miterlimit:10;stroke-dasharray:none;stroke-opacity:1"
         transform="matrix(1.3333334,0,0,-1.3333334,0,792)" />
      <path
         id="path104"
         d="m 226.75597,255.61761 0.25058,-0.16114 0.0901,-0.20409 0.0501,0.24834 0.001,-0.28304 -0.0724,0.40596 -0.0551,-0.0877 -0.10722,0.28281"
         style="fill:#000000;fill-opacity:0;stroke:#ffffff;stroke-width:1.26872;stroke-linecap:round;stroke-linejoin:round;stroke-miterlimit:10;stroke-dasharray:none;stroke-opacity:1"
         transform="matrix(1.3333334,0,0,-1.3333334,0,792)" />
      <path
         id="path105"
         d="m 226.39049,250.29369 -0.26802,-0.0998 0.1737,-0.21705 0.10675,0.19275 0.0201,-0.0903 -0.007,0.73599"
         style="fill:#000000;fill-opacity:0;stroke:#ffffff;stroke-width:1.26872;stroke-linecap:round;stroke-linejoin:round;stroke-miterlimit:10;stroke-dasharray:none;stroke-opacity:1"
         transform="matrix(1.3333334,0,0,-1.3333334,0,792)" />
      <path
         id="path106"
         d="m 221.8199,251.65297 0.53299,-1.00726 0.48782,-1.24994 0.5213,-0.29596 0.94179,-1.11626 0.56241,-0.8952 0.3629,-0.99115 0.21179,-0.32601 0.44281,-0.38656 0.23053,0.42706 0.23914,0.15317 0.25889,0.36275 0.5842,0.41336 1.74697,1.86424 0.65791,1.21095 1.03548,2.89757"
         style="fill:#000000;fill-opacity:0;stroke:#ffffff;stroke-width:1.26872;stroke-linecap:round;stroke-linejoin:round;stroke-miterlimit:10;stroke-dasharray:none;stroke-opacity:1"
         transform="matrix(1.3333334,0,0,-1.3333334,0,792)" />
      <path
         id="path107"
         d="m 224.5761,215.37648 -0.0396,0.0801 -0.1303,-0.0785 -0.0606,-0.21849 0.16173,0.48657 0.22772,-0.32488 0.0253,0.11011 0.0289,-1.94943 0.29364,1.25673"
         style="fill:#000000;fill-opacity:0;stroke:#ffffff;stroke-width:1.26872;stroke-linecap:round;stroke-linejoin:round;stroke-miterlimit:10;stroke-dasharray:none;stroke-opacity:1"
         transform="matrix(1.3333334,0,0,-1.3333334,0,792)" />
      <path
         id="path108"
         d="m 223.99875,206.63725 -0.0699,0.47484 0.1279,-0.32446 0.0829,0.0996 0.10005,-0.18728 -0.0223,-0.18236 -0.0344,0.12153 -0.0175,-0.13706 -0.0209,0.0994 -0.0586,-0.13928 -0.0194,0.081 -0.14738,-0.0701"
         style="fill:#000000;fill-opacity:0;stroke:#ffffff;stroke-width:1.26872;stroke-linecap:round;stroke-linejoin:round;stroke-miterlimit:10;stroke-dasharray:none;stroke-opacity:1"
         transform="matrix(1.3333334,0,0,-1.3333334,0,792)" />
      <path
         id="path109"
         d="m 223.36987,199.72231 0.18915,0.21945 -0.0262,-0.45996 -0.0941,0.33595"
         style="fill:#000000;fill-opacity:0;stroke:#ffffff;stroke-width:1.26872;stroke-linecap:round;stroke-linejoin:round;stroke-miterlimit:10;stroke-dasharray:none;stroke-opacity:1"
         transform="matrix(1.3333334,0,0,-1.3333334,0,792)" />
      <path
         id="path110"
         d="m 222.37105,194.07408 0.23703,0.44386 0.0303,-0.40472 0.17183,0.31905"
         style="fill:#000000;fill-opacity:0;stroke:#ffffff;stroke-width:1.26872;stroke-linecap:round;stroke-linejoin:round;stroke-miterlimit:10;stroke-dasharray:none;stroke-opacity:1"
         transform="matrix(1.3333334,0,0,-1.3333334,0,792)" />
      <path
         id="path111"
         d="m 218.24782,193.00456 -0.35045,0.0563 -0.0153,0.22124 0.0324,-0.33041 0.11459,0.0543 0.0553,0.34025 0.11505,-0.52664 0.0855,0.20513 0.24324,-0.31289 0.33288,-0.16865 0.92168,-1.63248 0.49014,-0.75966 0.11258,0.0565 0.12241,-0.0817 0.65939,-1.18548 0.28418,0.0801 0.14668,0.3427 0.034,-0.12906 0.1632,0.057 0.0609,-0.13924 0.13125,0.0859 0.0898,0.40004 0.0109,-0.15473 0.26644,-0.15936 0.41652,0.16052 0.0914,0.1411 0.12441,-0.0174 0.33929,0.71168 0.10898,0.0143 0.22943,0.35723 0.20476,0.0397 0.7735,1.74237 0.59477,1.05209 0.37563,0.33185 1.18478,2.44665 1.10118,1.59868 0.10184,0.33837 0.11886,-0.18752 -0.16822,-0.17941"
         style="fill:#000000;fill-opacity:0;stroke:#ffffff;stroke-width:1.26872;stroke-linecap:round;stroke-linejoin:round;stroke-miterlimit:10;stroke-dasharray:none;stroke-opacity:1"
         transform="matrix(1.3333334,0,0,-1.3333334,0,792)" />
      <path
         id="path112"
         d="m 262.92896,160.31126 -0.19687,0.38889 -0.14054,0.68066 0.28965,-0.25078 0.0425,-0.30412 0.11068,0.15003 0.0692,-0.23572 0.0176,0.0682 0.56089,-0.49281 1.20755,-2.3895 2.26214,-6.21303 1.08811,-3.70254 1.24704,-2.7029 0.20706,-0.75601 0.414,-0.90225 0.83841,-3.63097 0.43118,-1.26733 0.31797,-0.65341 0.12521,0.26286 -0.10486,0.41641 -0.0187,0.83829 -0.38357,0.45154"
         style="fill:#000000;fill-opacity:0;stroke:#ffffff;stroke-width:1.26872;stroke-linecap:round;stroke-linejoin:round;stroke-miterlimit:10;stroke-dasharray:none;stroke-opacity:1"
         transform="matrix(1.3333334,0,0,-1.3333334,0,792)" />
      <path
         id="path113"
         d="m 270.43283,140.81456 -0.36697,1.31461 -0.65314,0.54089 -0.23416,0.36287 0.1362,-0.0565 0.0786,0.56509 0.21552,-0.87716 0.26492,-2.07253 0.33502,-1.61593 0.17633,-1.9172 0.12518,-0.18727 0.0314,0.0985 -0.0174,-0.15135 -0.12884,0.12506 -0.12482,0.48301"
         style="fill:#000000;fill-opacity:0;stroke:#ffffff;stroke-width:1.26872;stroke-linecap:round;stroke-linejoin:round;stroke-miterlimit:10;stroke-dasharray:none;stroke-opacity:1"
         transform="matrix(1.3333334,0,0,-1.3333334,0,792)" />
      <path
         id="path114"
         d="m 268.4649,147.39006 -0.21603,-0.52835 -0.0537,-0.47968 0.53101,-2.07693 0.32061,-3.58775 0.40158,-1.80936 0.14103,-0.33197 0.0478,0.0725 0.17498,-0.21852 0.107,0.0486"
         style="fill:#000000;fill-opacity:0;stroke:#ffffff;stroke-width:1.26872;stroke-linecap:round;stroke-linejoin:round;stroke-miterlimit:10;stroke-dasharray:none;stroke-opacity:1"
         transform="matrix(1.3333334,0,0,-1.3333334,0,792)" />
      <path
         id="path115"
         d="m 269.0419,145.15903 -0.18188,-0.76541 0.0928,-2.77948 -0.19727,-1.5216 0.0906,-0.80209 0.0695,-0.024 0.19659,0.43739"
         style="fill:#000000;fill-opacity:0;stroke:#ffffff;stroke-width:1.26872;stroke-linecap:round;stroke-linejoin:round;stroke-miterlimit:10;stroke-dasharray:none;stroke-opacity:1"
         transform="matrix(1.3333334,0,0,-1.3333334,0,792)" />
      <path
         id="path116"
         d="m 269.3118,145.71201 -0.34369,-0.0302 0.0141,-0.22897 0.28943,0.15155 0.34906,-0.30855 0.42288,-0.81015 0.96722,-0.78183 0.25925,-0.3883 0.53302,-0.0913 1.04392,-0.38037 0.3005,-0.33464 0.53296,0.0293 0.16052,0.24013 0.0554,-0.13113 0.11209,-0.002"
         style="fill:#000000;fill-opacity:0;stroke:#ffffff;stroke-width:1.26872;stroke-linecap:round;stroke-linejoin:round;stroke-miterlimit:10;stroke-dasharray:none;stroke-opacity:1"
         transform="matrix(1.3333334,0,0,-1.3333334,0,792)" />
      <path
         id="path117"
         d="m 269.00571,146.75981 0.26526,-0.05 0.17547,0.29702 0.0439,-0.15599 0.65957,-0.54137 1.56259,-0.96665 0.27271,-0.39868 0.78201,-0.14871 0.26358,0.0901 0.74857,-0.56223 0.46844,-0.20157 0.19855,0.21946 0.33725,-0.48081 0.01,-0.26297"
         style="fill:#000000;fill-opacity:0;stroke:#ffffff;stroke-width:1.26872;stroke-linecap:round;stroke-linejoin:round;stroke-miterlimit:10;stroke-dasharray:none;stroke-opacity:1"
         transform="matrix(1.3333334,0,0,-1.3333334,0,792)" />
      <path
         id="path118"
         d="m 172.76302,204.27547 0.21162,0.0297 0.33917,0.43112 0.11112,-0.007 0.57702,1.19387 1.57473,2.63974 1.10639,1.04253 0.26122,0.0228 0.94792,0.50017 0.30634,-0.0253 0.38116,-0.10531 0.2059,-0.36384 0.53217,-0.48327 0.46754,-1.82913 0.0194,-0.42258 -0.0821,-1.77911 -0.45062,-1.1554 -0.57009,-1.08038 -0.0639,0.24066 0.0171,-0.0686 -0.14122,-0.0171 -0.1344,0.11728 -0.0952,0.32129 -0.1159,-0.42346"
         style="fill:#000000;fill-opacity:0;stroke:#ffffff;stroke-width:1.26872;stroke-linecap:round;stroke-linejoin:round;stroke-miterlimit:10;stroke-dasharray:none;stroke-opacity:1"
         transform="matrix(1.3333334,0,0,-1.3333334,0,792)" />
      <path
         id="path119"
         d="m 166.56065,368.01886 0.19396,0.0846 0.14866,-0.21981 0.0819,-3.03672 0.12103,-0.87341 -0.0639,-1.61938 0.0662,-1.2371 0.15393,-0.27313 0.095,-1.15845 0.28118,-0.61602 0.0348,0.38009 -0.15492,0.15058 -0.22931,0.77099"
         style="fill:#000000;fill-opacity:0;stroke:#ffffff;stroke-width:1.26872;stroke-linecap:round;stroke-linejoin:round;stroke-miterlimit:10;stroke-dasharray:none;stroke-opacity:1"
         transform="matrix(1.3333334,0,0,-1.3333334,0,792)" />
      <path
         id="path120"
         d="m 164.046,370.76221 -0.44215,-0.0439 -0.13411,0.15467 -0.41109,-0.25483 -0.48036,0.32114 -0.30719,-0.17926 -0.19336,-0.431 -0.0749,0.12525 -0.10281,-0.0154 -0.55942,-0.28537 -1.50815,-1.81247 -1.08204,-2.02615 -1.1372,-3.92215 -0.35058,-1.72559 -0.13132,-1.46325 -0.004,-1.84848 0.2556,-1.09967 0.26328,-0.68708 0.65345,-1.0769 0.19011,-0.0698 0.78049,-0.75699 1.5145,-0.65064 1.47406,-0.7998 1.10972,0.0131 0.60031,0.3483 0.65871,-0.019 1.01375,0.32989 0.32799,-0.056 0.39126,0.0852 1.5175,0.95587 0.67286,0.60272 2.09848,1.31634 1.39796,1.81098 0.51726,0.94653 0.18719,0.17685 0.16095,0.58621 0.20085,1.41394 0.0376,1.70731 -0.5038,2.43314 -0.76543,1.40872 -0.33267,0.1626 -0.35964,0.59701 -0.65774,0.63281 -1.48506,0.85431 -0.25092,-0.20263 -0.28543,4.5e-4 -0.23889,0.28101 -0.29063,0.12579 -1.06016,0.3595 -0.27297,-0.0294 -2.69661,-0.52292 -0.50008,-0.34668 -0.33101,-0.54312 -0.20398,-1.01547"
         style="fill:#000000;fill-opacity:0;stroke:#ffffff;stroke-width:1.26872;stroke-linecap:round;stroke-linejoin:round;stroke-miterlimit:10;stroke-dasharray:none;stroke-opacity:1"
         transform="matrix(1.3333334,0,0,-1.3333334,0,792)" />
      <path
         id="path121"
         d="m 165.98123,302.62885 -0.13882,-0.13138 0.0279,0.31112 0.40721,0.24338 3.18474,0.69013 1.53369,0.18963 1.48082,-0.25314 0.28175,-0.26816 0.17295,-0.69699 -0.0913,-0.65894 -0.18341,-0.4635 -5.0304,-7.16992 -0.49751,-0.51196 -0.12009,-0.31275 0.0952,-0.1409 0.10894,0.2403 0.80148,-0.16992 0.87294,-0.0292 1.6013,0.12195 2.05561,0.35117 1.19738,0.33178 0.45954,0.24567 0.99994,0.17618 -0.0643,0.16928 -0.12056,0.013 -0.0918,-0.18887 -0.29605,-0.0386"
         style="fill:#000000;fill-opacity:0;stroke:#ffffff;stroke-width:1.26872;stroke-linecap:round;stroke-linejoin:round;stroke-miterlimit:10;stroke-dasharray:none;stroke-opacity:1"
         transform="matrix(1.3333334,0,0,-1.3333334,0,792)" />
      <path
         id="path122"
         d="m 170.32491,309.48013 -0.77547,0.0114 -0.43298,-0.16217 -0.19732,-0.19486 -0.51794,0.0563 -0.22403,0.15643 -1.23546,-0.38269 -0.10219,0.12887 -0.14491,0.005 -0.13474,-0.19712 -0.691,-0.36963 -0.91619,-0.86157 -1.35582,-1.32056 -0.72934,-0.86737 -0.98773,-1.51687 -0.48747,-1.13687 -1.67275,-2.92173 -0.57904,-2.04281 -0.27908,-1.88999 -0.0443,-1.15466 0.17351,-1.07721 0.56713,-1.2775 0.86315,-1.05719 1.12153,-0.8013 1.91238,-0.85968 0.72301,-0.57171 2.08444,-0.55588 0.97565,0.0711 2.56736,-1.00171 1.97074,-0.28592 0.75526,0.4202 0.33664,-0.0805 0.67328,0.21585 1.23703,0.67709 1.28125,1.18119 0.64787,0.89255 0.35588,0.27636 1.49863,1.80405 1.34552,1.91818 1.10649,1.8887 0.66692,1.56372 0.2809,1.49604 0.0267,1.10379 -0.28703,1.72485 -0.55434,1.23871 -0.78517,1.13412 -1.46331,1.42759 -2.01194,1.00271 -3.43882,1.28574 -1.82788,0.15497 -0.87887,-0.10941 -0.77632,0.0296 -1.36702,-0.23004 -0.69162,-0.42697 -0.37928,-0.74356"
         style="fill:#000000;fill-opacity:0;stroke:#ffffff;stroke-width:1.26872;stroke-linecap:round;stroke-linejoin:round;stroke-miterlimit:10;stroke-dasharray:none;stroke-opacity:1"
         transform="matrix(1.3333334,0,0,-1.3333334,0,792)" />
      <path
         id="path123"
         d="m 165.25877,250.56479 -0.11973,-0.33275 0.16089,0.2265 0.0291,-0.0766 0.10297,0.13443 0.11477,-0.0384 0.3014,0.4844 0.86756,0.69305 0.14708,-0.0719 0.54535,0.19149 0.31433,-0.14131 0.16057,-0.28586 0.22168,0.0664 0.2142,-0.10849 0.16396,0.21024 0.048,-0.16214 0.51764,-0.5315 0.0568,-0.2064 0.0239,0.18995 -0.0948,-0.76991 -0.1702,-0.34843 -0.197,-0.0864 -1.06125,-1.07627 -0.2708,-0.50886 -0.51006,-0.39173 -0.15821,-0.002 -0.31546,-0.41069 -0.0773,-0.28485 0.24368,0.52812 0.0812,-0.18182 0.47026,0.12475 0.24591,0.30712 0.12499,-0.0795 0.98469,0.0829 0.72871,0.0939 0.33619,0.15074 0.74311,-0.2131 0.75045,-0.64057 0.23497,-0.45083 0.29873,-0.23917 0.21238,-0.46535 0.0944,-0.67129 -0.0229,-1.0461 -0.28219,-0.65779 -0.25037,-0.0262 -0.40396,-0.72 -0.86137,-0.93695 -0.2728,0.0629 -0.11755,-0.20776 -0.53444,-0.44124 -1.21053,-0.42323 -0.67401,-0.0357 -0.30791,0.0888 -0.48977,-0.16042 -0.10425,-0.13745 -0.18317,0.1474 -0.0749,0.28133 0.0729,0.12964"
         style="fill:#000000;fill-opacity:0;stroke:#ffffff;stroke-width:1.26872;stroke-linecap:round;stroke-linejoin:round;stroke-miterlimit:10;stroke-dasharray:none;stroke-opacity:1"
         transform="matrix(1.3333334,0,0,-1.3333334,0,792)" />
      <path
         id="path124"
         d="m 165.51649,256.55215 -0.12637,-0.0792 -0.20026,0.13181 -0.29425,-0.0879 -0.10789,0.11715 -0.31201,-0.0869 -0.44164,0.0481 -1.09077,-0.36301 -1.05744,-0.69392 -1.21908,-1.26838 -1.76862,-3.14961 -1.18097,-3.02124 -0.69978,-3.32176 -0.285,-2.79994 0.24839,-1.49535 0.47002,-1.59389 0.47513,-1.1761 0.5345,-1.00233 1.0387,-1.28701 0.79055,-0.5558 0.90734,-0.39427 1.46235,-0.40805 2.02208,0.0293 0.84388,0.10668 2.64672,0.71438 2.02553,0.84209 0.70719,0.47813 0.36164,0.0883 1.00425,0.6447 1.44891,1.1615 0.74866,1.01442 0.53126,0.42487 0.35927,0.51417 0.78636,1.90448 0.39919,1.95722 0.10777,1.57835 -0.0918,2.17453 -0.45638,3.07002 -0.58426,1.85306 -0.84912,1.78368 -1.00154,0.99437 -0.70938,0.52919 -0.8154,0.42814 -1.8567,0.45777 -2.00904,-0.0481 -2.31978,-0.66315 -2.08541,-1.55835 -1.2715,-1.64467 -0.47774,-1.29234"
         style="fill:#000000;fill-opacity:0;stroke:#ffffff;stroke-width:1.26872;stroke-linecap:round;stroke-linejoin:round;stroke-miterlimit:10;stroke-dasharray:none;stroke-opacity:1"
         transform="matrix(1.3333334,0,0,-1.3333334,0,792)" />
      <path
         id="path125"
         d="m 163.33255,148.85539 -0.16542,0.0163 -0.0186,0.18291 -0.0468,-0.14838 0.21687,-0.74362 0.10472,-1.58473 -0.12042,-0.99205 0.0196,-0.91089 0.0957,-0.15959 -0.10475,-0.41263 0.25633,-0.79031 0.11708,0.19626 0.0145,-0.17462 0.26829,-0.23278 1.02225,-0.0302 2.04288,0.80437 0.5491,-0.0124 1.19069,0.86246 0.35882,0.48768 0.43479,0.0365 0.11181,-0.11187 0.18048,0.12184 -0.0729,-0.0418 0.007,0.43353 -0.29284,-0.66893 -0.0815,-0.065 -0.0594,0.2601 0.0131,-0.16873 -0.53706,-0.38675"
         style="fill:#000000;fill-opacity:0;stroke:#ffffff;stroke-width:1.26872;stroke-linecap:round;stroke-linejoin:round;stroke-miterlimit:10;stroke-dasharray:none;stroke-opacity:1"
         transform="matrix(1.3333334,0,0,-1.3333334,0,792)" />
      <path
         id="path126"
         d="m 167.78185,149.28296 -0.0982,-0.10214 0.0675,-0.0113 0.044,0.20965 0.12049,-0.17543 0.13526,-0.51022 0.0905,-0.0274 0.26677,-0.67015 0.44449,-3.39923 0.2962,-3.87761 0.09,-0.58701 0.19454,-0.51626 0.0698,0.0622 0.1677,-0.7079 0.0533,0.0712"
         style="fill:#000000;fill-opacity:0;stroke:#ffffff;stroke-width:1.26872;stroke-linecap:round;stroke-linejoin:round;stroke-miterlimit:10;stroke-dasharray:none;stroke-opacity:1"
         transform="matrix(1.3333334,0,0,-1.3333334,0,792)" />
      <path
         id="path127"
         d="m 169.09225,155.34044 0.0695,-0.10419 0.0554,0.0996 -0.0574,0.4638 -0.0168,-0.12115 -0.35886,0.0556 -0.153,0.29752 -0.0753,-0.11686 -0.28442,-0.008 -0.24933,0.10046 -1.5831,0.001 -2.05264,-0.3274 -1.25017,-0.33019 -1.27992,-0.57187 -0.96907,-0.63095 -1.09696,-0.96436 -3.06287,-3.68537 -2.16995,-3.13951 -0.76311,-1.70478 -0.90046,-2.7569 -0.33165,-1.59553 -0.30831,-2.49435 0.25992,-2.7276 0.81887,-2.32689 0.64585,-1.07328 1.02695,-1.18733 0.60599,-0.46454 2.2917,-0.86381 2.3024,-0.27858 1.05954,0.0626 1.13985,0.20336 1.70146,0.53288 1.21728,0.44321 2.42752,1.15907 2.24965,1.43758 2.32282,2.23733 2.20936,2.7816 1.05973,1.77663 0.45538,1.02046 0.29608,0.95848 0.22708,1.54761 0.003,1.72568 -0.36775,2.2251 -0.83223,1.65702 -2.53055,2.98554 -2.43724,1.80876 -0.49441,-0.0672 -0.48374,0.0668 -0.44305,0.31877 -0.98834,0.21221 -1.47638,0.10763 -0.45769,-0.0516 -1.84517,-0.63263 -1.6479,-0.89598 -0.60239,-0.50876 -0.12622,-0.20784 -0.0556,-0.49292"
         style="fill:#000000;fill-opacity:0;stroke:#ffffff;stroke-width:1.26872;stroke-linecap:round;stroke-linejoin:round;stroke-miterlimit:10;stroke-dasharray:none;stroke-opacity:1"
         transform="matrix(1.3333334,0,0,-1.3333334,0,792)" />
    </g>
  </g>
</svg>
